<?xml version="1.0" encoding="UTF-8"?><svg width="auto" height="1200.0" version="1.1" xmlns="http://www.w3.org/2000/svg"><rect x="20" y="20" width="250" height="200" style="fill:white;stroke:black;stroke-width:1"/><text x="30" y="35" style="fill:blue">Diego Villa García </text><text x="30" y="50">fechaNacimiento: 22/06/2001</text><text x="30" y="65">lugarNacimiento: Oviedo</text><text x="45" y="80">latitud: -5.845053</text><text x="45" y="95">longitud: 43.360422</text><text x="45" y="110">altitud: 242</text><text x="30" y="125">lugarResidencia: La Corredoria</text><text x="45" y="140">latitud: -5.823475</text><text x="45" y="155">longitud: 43.387149</text><text x="45" y="170">altitud: 166</text><text x="30" y="185">comentario: Estudiante de SEW</text><rect x="320" y="20" width="250" height="200" style="fill:white;stroke:black;stroke-width:1"/><text x="330" y="35" style="fill:blue">Eduardo Martínez Suárez </text><text x="330" y="50">fechaNacimiento: 12/08/2001</text><text x="330" y="65">lugarNacimiento: Gijón</text><text x="345" y="80">latitud: -5.66275</text><text x="345" y="95">longitud: 43.544942</text><text x="345" y="110">altitud: 0</text><text x="330" y="125">lugarResidencia: Langreo</text><text x="345" y="140">latitud: -5.683431</text><text x="345" y="155">longitud: 43.295013</text><text x="345" y="170">altitud: 280</text><rect x="620" y="20" width="250" height="200" style="fill:white;stroke:black;stroke-width:1"/><text x="630" y="35" style="fill:blue">Martín Suárez Gómez </text><text x="630" y="50">fechaNacimiento: 25/09/1999</text><text x="630" y="65">lugarNacimiento: Santander</text><text x="645" y="80">latitud: -3.809972</text><text x="645" y="95">longitud: 43.462041</text><text x="645" y="110">altitud: 23</text><text x="630" y="125">lugarResidencia: Ribadesella</text><text x="645" y="140">latitud: -5.058748</text><text x="645" y="155">longitud: 43.461713</text><text x="645" y="170">altitud: 0</text><rect x="920" y="20" width="250" height="200" style="fill:white;stroke:black;stroke-width:1"/><text x="930" y="35" style="fill:blue">Marta Pérez Pérez </text><text x="930" y="50">fechaNacimiento: 30/06/2001</text><text x="930" y="65">lugarNacimiento: León</text><text x="945" y="80">latitud: -5.57096</text><text x="945" y="95">longitud: 42.597825</text><text x="945" y="110">altitud: 837</text><text x="930" y="125">lugarResidencia: Cangas de Onís</text><text x="945" y="140">latitud: -5.06585</text><text x="945" y="155">longitud: 43.313614</text><text x="945" y="170">altitud: 424</text><rect x="20" y="320" width="250" height="200" style="fill:white;stroke:black;stroke-width:1"/><text x="30" y="335" style="fill:blue">Edgar López Gómez </text><text x="30" y="350">fechaNacimiento: 22/06/2001</text><text x="30" y="365">lugarNacimiento: Mieres</text><text x="45" y="380">latitud: -5.772247</text><text x="45" y="395">longitud: 43.248816</text><text x="45" y="410">altitud: 386</text><text x="30" y="425">lugarResidencia: Navia</text><text x="45" y="440">latitud: -6.72337</text><text x="45" y="455">longitud: 43.539111</text><text x="45" y="470">altitud: 55</text><rect x="320" y="320" width="250" height="200" style="fill:white;stroke:black;stroke-width:1"/><text x="330" y="335" style="fill:blue">Laura Menéndez Díaz </text><text x="330" y="350">fechaNacimiento: 14/02/2001</text><text x="330" y="365">lugarNacimiento: Avilés</text><text x="345" y="380">latitud: -5.922247</text><text x="345" y="395">longitud: 43.555444</text><text x="345" y="410">altitud: 27</text><text x="330" y="425">lugarResidencia: Lugones</text><text x="345" y="440">latitud: -5.810479</text><text x="345" y="455">longitud: 43.402768</text><text x="345" y="470">altitud: 166</text><rect x="620" y="320" width="250" height="200" style="fill:white;stroke:black;stroke-width:1"/><text x="630" y="335" style="fill:blue">Mireia García Rodríguez </text><text x="630" y="350">fechaNacimiento: 29/02/2002</text><text x="630" y="365">lugarNacimiento: Pola de Lena</text><text x="645" y="380">latitud: -5.828135</text><text x="645" y="395">longitud: 43.161569</text><text x="645" y="410">altitud: 502</text><text x="630" y="425">lugarResidencia: Tabladiello</text><text x="645" y="440">latitud: -5.606987</text><text x="645" y="455">longitud: 43.393217</text><text x="645" y="470">altitud: 270</text><rect x="920" y="320" width="250" height="200" style="fill:white;stroke:black;stroke-width:1"/><text x="930" y="335" style="fill:blue">Lara Díaz García </text><text x="930" y="350">fechaNacimiento: 02/11/2001</text><text x="930" y="365">lugarNacimiento: Cangas de Narcea</text><text x="945" y="380">latitud: -6.506993</text><text x="945" y="395">longitud: 43.238485 </text><text x="945" y="410">altitud: 523</text><text x="930" y="425">lugarResidencia: Viella</text><text x="945" y="440">latitud: -5.784678</text><text x="945" y="455">longitud: 43.399113</text><text x="945" y="470">altitud: 179</text><rect x="20" y="620" width="250" height="200" style="fill:white;stroke:black;stroke-width:1"/><text x="30" y="635" style="fill:blue">Enrique Riesgo García </text><text x="30" y="650">fechaNacimiento: 28/12/2001</text><text x="30" y="665">lugarNacimiento: Lugo</text><text x="45" y="680">latitud: -7.473992</text><text x="45" y="695">longitud: 43.046225</text><text x="45" y="710">altitud: 525</text><text x="30" y="725">lugarResidencia: Ourense</text><text x="45" y="740">latitud: -7.61141</text><text x="45" y="755">longitud: 42.196846</text><text x="45" y="770">altitud: 609</text><rect x="320" y="620" width="250" height="200" style="fill:white;stroke:black;stroke-width:1"/><text x="330" y="635" style="fill:blue">Javier Soldado Gómez </text><text x="330" y="650">fechaNacimiento: 14/07/2001</text><text x="330" y="665">lugarNacimiento: Tineo</text><text x="345" y="680">latitud: -6.491952</text><text x="345" y="695">longitud: 43.309275</text><text x="345" y="710">altitud: 557</text><text x="330" y="725">lugarResidencia: Ribadeo</text><text x="345" y="740">latitud: -7.0436775</text><text x="345" y="755">longitud: 43.5361589</text><text x="345" y="770">altitud: 68</text><rect x="620" y="620" width="250" height="200" style="fill:white;stroke:black;stroke-width:1"/><text x="630" y="635" style="fill:blue">Manuel Beltrán Díaz </text><text x="630" y="650">fechaNacimiento: 12/10/2001</text><text x="630" y="665">lugarNacimiento: La Coruña</text><text x="645" y="680">latitud: -8.3959425</text><text x="645" y="695">longitud: 43.3709703</text><text x="645" y="710">altitud: 16</text><text x="630" y="725">lugarResidencia: San Sebastián</text><text x="645" y="740">latitud: -1.9838889</text><text x="645" y="755">longitud: 43.3224219</text><text x="645" y="770">altitud: 25</text><rect x="920" y="620" width="250" height="200" style="fill:white;stroke:black;stroke-width:1"/><text x="930" y="635" style="fill:blue">Sara Suárez Cabal </text><text x="930" y="650">fechaNacimiento: 01/04/2002</text><text x="930" y="665">lugarNacimiento: Salamanca</text><text x="945" y="680">latitud: -5.6640182</text><text x="945" y="695">longitud: 40.9651572</text><text x="945" y="710">altitud: 820</text><text x="930" y="725">lugarResidencia: Burgos</text><text x="945" y="740">latitud: -3.696977</text><text x="945" y="755">longitud: 42.343926</text><text x="945" y="770">altitud: 873</text><rect x="20" y="920" width="250" height="200" style="fill:white;stroke:black;stroke-width:1"/><text x="30" y="935" style="fill:blue">Martina Gómez García </text><text x="30" y="950">fechaNacimiento: 05/09/2002</text><text x="30" y="965">lugarNacimiento: Zamora</text><text x="45" y="980">latitud: -5.744328378518475</text><text x="45" y="995">longitud: 41.50429182277301</text><text x="45" y="1010">altitud: 641</text><text x="30" y="1025">lugarResidencia: Vigo</text><text x="45" y="1040">latitud: -8.7247205</text><text x="45" y="1055">longitud: 42.2376602</text><text x="45" y="1070">altitud: 22</text></svg>