<?xml version="1.0" encoding="utf-8"?><svg width="auto" height="6620" style="overflow:visible " version="1.1" xmlns="http://www.w3.org/2000/svg"><rect x="20" y="20" width="200" height="40" style="fill:white;stroke:black;stroke-width:1" /><text x="30" y="30" font-size="10" style="fill:blue">persona</text><text x="30" y="40" font-size="8" style="fill:black">nombre: Diego</text><text x="30" y="50" font-size="8" style="fill:black">apellidos: Villa García</text><rect x="240" y="20" width="200" height="40" style="fill:white;stroke:black;stroke-width:1" /><text x="250" y="30" font-size="10" style="fill:blue">datos</text><path d="M220 40 C240 40 220 40 240 40" style="fill:transparent;stroke:black" /><rect x="460" y="20" width="200" height="40" style="fill:white;stroke:black;stroke-width:1" /><text x="470" y="30" font-size="10" style="fill:blue">nacimiento</text><path d="M440 40 C460 40 440 40 460 40" style="fill:transparent;stroke:black" /><rect x="680" y="20" width="200" height="40" style="fill:white;stroke:black;stroke-width:1" /><text x="690" y="30" font-size="10" style="fill:blue">fechaNacimiento</text><path d="M660 40 C680 40 660 40 680 40" style="fill:transparent;stroke:black" /><rect x="746" y="20" width="137" height="40" style="fill:green;stroke:black;stroke-width:1" /><text x="756" y="30" font-size="8" style="fill:white">22/06/2001</text><rect x="680" y="70" width="200" height="40" style="fill:white;stroke:black;stroke-width:1" /><text x="690" y="80" font-size="10" style="fill:blue">lugarNacimiento</text><path d="M660 40 C680 40 660 90 680 90" style="fill:transparent;stroke:black" /><text x="690" y="90" font-size="8" style="fill:black">nombre: Oviedo</text><rect x="900" y="70" width="200" height="40" style="fill:white;stroke:black;stroke-width:1" /><text x="910" y="80" font-size="10" style="fill:blue">coordenadas</text><path d="M880 90 C900 90 880 90 900 90" style="fill:transparent;stroke:black" /><text x="910" y="90" font-size="8" style="fill:black">latitud: 43.360422</text><text x="910" y="100" font-size="8" style="fill:black">longitud: -5.845053</text><text x="910" y="110" font-size="8" style="fill:black">altitud: 242</text><rect x="460" y="220" width="200" height="40" style="fill:white;stroke:black;stroke-width:1" /><text x="470" y="230" font-size="10" style="fill:blue">residencia</text><path d="M440 40 C460 40 440 240 460 240" style="fill:transparent;stroke:black" /><rect x="680" y="220" width="200" height="40" style="fill:white;stroke:black;stroke-width:1" /><text x="690" y="230" font-size="10" style="fill:blue">lugarResidencia</text><path d="M660 240 C680 240 660 240 680 240" style="fill:transparent;stroke:black" /><text x="690" y="240" font-size="8" style="fill:black">nombre: La Corredoria</text><rect x="900" y="220" width="200" height="40" style="fill:white;stroke:black;stroke-width:1" /><text x="910" y="230" font-size="10" style="fill:blue">coordenadas</text><path d="M880 240 C900 240 880 240 900 240" style="fill:transparent;stroke:black" /><text x="910" y="240" font-size="8" style="fill:black">latitud: 43.387149</text><text x="910" y="250" font-size="8" style="fill:black">longitud: -5.823475</text><text x="910" y="260" font-size="8" style="fill:black">altitud: 166</text><rect x="460" y="370" width="200" height="40" style="fill:white;stroke:black;stroke-width:1" /><text x="470" y="380" font-size="10" style="fill:blue">foto</text><path d="M440 40 C460 40 440 390 460 390" style="fill:transparent;stroke:black" /><rect x="526" y="370" width="137" height="40" style="fill:green;stroke:black;stroke-width:1" /><text x="536" y="380" font-size="8" style="fill:white">generico.jpg</text><rect x="460" y="420" width="200" height="40" style="fill:white;stroke:black;stroke-width:1" /><text x="470" y="430" font-size="10" style="fill:blue">video</text><path d="M440 40 C460 40 440 440 460 440" style="fill:transparent;stroke:black" /><rect x="526" y="420" width="137" height="40" style="fill:green;stroke:black;stroke-width:1" /><text x="536" y="430" font-size="8" style="fill:white">video.mp4</text><rect x="460" y="470" width="200" height="40" style="fill:white;stroke:black;stroke-width:1" /><text x="470" y="480" font-size="10" style="fill:blue">comentario</text><path d="M440 40 C460 40 440 490 460 490" style="fill:transparent;stroke:black" /><rect x="526" y="470" width="137" height="40" style="fill:green;stroke:black;stroke-width:1" /><text x="536" y="480" font-size="8" style="fill:white">Estudiante de SEW</text><rect x="240" y="570" width="200" height="40" style="fill:white;stroke:black;stroke-width:1" /><text x="250" y="580" font-size="10" style="fill:blue">persona</text><path d="M220 40 C240 40 220 590 240 590" style="fill:transparent;stroke:black" /><text x="250" y="590" font-size="8" style="fill:black">nombre: Eduardo</text><text x="250" y="600" font-size="8" style="fill:black">apellidos: Martínez Suárez</text><rect x="460" y="570" width="200" height="40" style="fill:white;stroke:black;stroke-width:1" /><text x="470" y="580" font-size="10" style="fill:blue">datos</text><path d="M440 590 C460 590 440 590 460 590" style="fill:transparent;stroke:black" /><rect x="680" y="570" width="200" height="40" style="fill:white;stroke:black;stroke-width:1" /><text x="690" y="580" font-size="10" style="fill:blue">nacimiento</text><path d="M660 590 C680 590 660 590 680 590" style="fill:transparent;stroke:black" /><rect x="900" y="570" width="200" height="40" style="fill:white;stroke:black;stroke-width:1" /><text x="910" y="580" font-size="10" style="fill:blue">fechaNacimiento</text><path d="M880 590 C900 590 880 590 900 590" style="fill:transparent;stroke:black" /><rect x="966" y="570" width="137" height="40" style="fill:green;stroke:black;stroke-width:1" /><text x="976" y="580" font-size="8" style="fill:white">12/08/2001</text><rect x="900" y="620" width="200" height="40" style="fill:white;stroke:black;stroke-width:1" /><text x="910" y="630" font-size="10" style="fill:blue">lugarNacimiento</text><path d="M880 590 C900 590 880 640 900 640" style="fill:transparent;stroke:black" /><text x="910" y="640" font-size="8" style="fill:black">nombre: Gijón</text><rect x="1120" y="620" width="200" height="40" style="fill:white;stroke:black;stroke-width:1" /><text x="1130" y="630" font-size="10" style="fill:blue">coordenadas</text><path d="M1100 640 C1120 640 1100 640 1120 640" style="fill:transparent;stroke:black" /><text x="1130" y="640" font-size="8" style="fill:black">latitud: 43.544942</text><text x="1130" y="650" font-size="8" style="fill:black">longitud: -5.66275</text><text x="1130" y="660" font-size="8" style="fill:black">altitud: 0</text><rect x="680" y="770" width="200" height="40" style="fill:white;stroke:black;stroke-width:1" /><text x="690" y="780" font-size="10" style="fill:blue">residencia</text><path d="M660 590 C680 590 660 790 680 790" style="fill:transparent;stroke:black" /><rect x="900" y="770" width="200" height="40" style="fill:white;stroke:black;stroke-width:1" /><text x="910" y="780" font-size="10" style="fill:blue">lugarResidencia</text><path d="M880 790 C900 790 880 790 900 790" style="fill:transparent;stroke:black" /><text x="910" y="790" font-size="8" style="fill:black">nombre: Langreo</text><rect x="1120" y="770" width="200" height="40" style="fill:white;stroke:black;stroke-width:1" /><text x="1130" y="780" font-size="10" style="fill:blue">coordenadas</text><path d="M1100 790 C1120 790 1100 790 1120 790" style="fill:transparent;stroke:black" /><text x="1130" y="790" font-size="8" style="fill:black">latitud: 43.295013</text><text x="1130" y="800" font-size="8" style="fill:black">longitud: -5.683431</text><text x="1130" y="810" font-size="8" style="fill:black">altitud: 280</text><rect x="680" y="920" width="200" height="40" style="fill:white;stroke:black;stroke-width:1" /><text x="690" y="930" font-size="10" style="fill:blue">foto</text><path d="M660 590 C680 590 660 940 680 940" style="fill:transparent;stroke:black" /><rect x="746" y="920" width="137" height="40" style="fill:green;stroke:black;stroke-width:1" /><text x="756" y="930" font-size="8" style="fill:white">generico.jpg</text><rect x="460" y="1020" width="200" height="40" style="fill:white;stroke:black;stroke-width:1" /><text x="470" y="1030" font-size="10" style="fill:blue">persona</text><path d="M440 590 C460 590 440 1040 460 1040" style="fill:transparent;stroke:black" /><text x="470" y="1040" font-size="8" style="fill:black">nombre: Martín</text><text x="470" y="1050" font-size="8" style="fill:black">apellidos: Suárez Gómez</text><rect x="680" y="1020" width="200" height="40" style="fill:white;stroke:black;stroke-width:1" /><text x="690" y="1030" font-size="10" style="fill:blue">datos</text><path d="M660 1040 C680 1040 660 1040 680 1040" style="fill:transparent;stroke:black" /><rect x="900" y="1020" width="200" height="40" style="fill:white;stroke:black;stroke-width:1" /><text x="910" y="1030" font-size="10" style="fill:blue">nacimiento</text><path d="M880 1040 C900 1040 880 1040 900 1040" style="fill:transparent;stroke:black" /><rect x="1120" y="1020" width="200" height="40" style="fill:white;stroke:black;stroke-width:1" /><text x="1130" y="1030" font-size="10" style="fill:blue">fechaNacimiento</text><path d="M1100 1040 C1120 1040 1100 1040 1120 1040" style="fill:transparent;stroke:black" /><rect x="1186" y="1020" width="137" height="40" style="fill:green;stroke:black;stroke-width:1" /><text x="1196" y="1030" font-size="8" style="fill:white">25/09/1999</text><rect x="1120" y="1070" width="200" height="40" style="fill:white;stroke:black;stroke-width:1" /><text x="1130" y="1080" font-size="10" style="fill:blue">lugarNacimiento</text><path d="M1100 1040 C1120 1040 1100 1090 1120 1090" style="fill:transparent;stroke:black" /><text x="1130" y="1090" font-size="8" style="fill:black">nombre: Santander</text><rect x="1340" y="1070" width="200" height="40" style="fill:white;stroke:black;stroke-width:1" /><text x="1350" y="1080" font-size="10" style="fill:blue">coordenadas</text><path d="M1320 1090 C1340 1090 1320 1090 1340 1090" style="fill:transparent;stroke:black" /><text x="1350" y="1090" font-size="8" style="fill:black">latitud: 43.462041</text><text x="1350" y="1100" font-size="8" style="fill:black">longitud: -3.809972</text><text x="1350" y="1110" font-size="8" style="fill:black">altitud: 23</text><rect x="900" y="1220" width="200" height="40" style="fill:white;stroke:black;stroke-width:1" /><text x="910" y="1230" font-size="10" style="fill:blue">residencia</text><path d="M880 1040 C900 1040 880 1240 900 1240" style="fill:transparent;stroke:black" /><rect x="1120" y="1220" width="200" height="40" style="fill:white;stroke:black;stroke-width:1" /><text x="1130" y="1230" font-size="10" style="fill:blue">lugarResidencia</text><path d="M1100 1240 C1120 1240 1100 1240 1120 1240" style="fill:transparent;stroke:black" /><text x="1130" y="1240" font-size="8" style="fill:black">nombre: Ribadesella</text><rect x="1340" y="1220" width="200" height="40" style="fill:white;stroke:black;stroke-width:1" /><text x="1350" y="1230" font-size="10" style="fill:blue">coordenadas</text><path d="M1320 1240 C1340 1240 1320 1240 1340 1240" style="fill:transparent;stroke:black" /><text x="1350" y="1240" font-size="8" style="fill:black">latitud: 43.461713</text><text x="1350" y="1250" font-size="8" style="fill:black">longitud: -5.058748</text><text x="1350" y="1260" font-size="8" style="fill:black">altitud: 0</text><rect x="900" y="1370" width="200" height="40" style="fill:white;stroke:black;stroke-width:1" /><text x="910" y="1380" font-size="10" style="fill:blue">foto</text><path d="M880 1040 C900 1040 880 1390 900 1390" style="fill:transparent;stroke:black" /><rect x="966" y="1370" width="137" height="40" style="fill:green;stroke:black;stroke-width:1" /><text x="976" y="1380" font-size="8" style="fill:white">generico.jpg</text><rect x="460" y="1520" width="200" height="40" style="fill:white;stroke:black;stroke-width:1" /><text x="470" y="1530" font-size="10" style="fill:blue">persona</text><path d="M440 590 C460 590 440 1540 460 1540" style="fill:transparent;stroke:black" /><text x="470" y="1540" font-size="8" style="fill:black">nombre: Marta</text><text x="470" y="1550" font-size="8" style="fill:black">apellidos: Pérez Pérez</text><rect x="680" y="1520" width="200" height="40" style="fill:white;stroke:black;stroke-width:1" /><text x="690" y="1530" font-size="10" style="fill:blue">datos</text><path d="M660 1540 C680 1540 660 1540 680 1540" style="fill:transparent;stroke:black" /><rect x="900" y="1520" width="200" height="40" style="fill:white;stroke:black;stroke-width:1" /><text x="910" y="1530" font-size="10" style="fill:blue">nacimiento</text><path d="M880 1540 C900 1540 880 1540 900 1540" style="fill:transparent;stroke:black" /><rect x="1120" y="1520" width="200" height="40" style="fill:white;stroke:black;stroke-width:1" /><text x="1130" y="1530" font-size="10" style="fill:blue">fechaNacimiento</text><path d="M1100 1540 C1120 1540 1100 1540 1120 1540" style="fill:transparent;stroke:black" /><rect x="1186" y="1520" width="137" height="40" style="fill:green;stroke:black;stroke-width:1" /><text x="1196" y="1530" font-size="8" style="fill:white">30/06/2001</text><rect x="1120" y="1570" width="200" height="40" style="fill:white;stroke:black;stroke-width:1" /><text x="1130" y="1580" font-size="10" style="fill:blue">lugarNacimiento</text><path d="M1100 1540 C1120 1540 1100 1590 1120 1590" style="fill:transparent;stroke:black" /><text x="1130" y="1590" font-size="8" style="fill:black">nombre: León</text><rect x="1340" y="1570" width="200" height="40" style="fill:white;stroke:black;stroke-width:1" /><text x="1350" y="1580" font-size="10" style="fill:blue">coordenadas</text><path d="M1320 1590 C1340 1590 1320 1590 1340 1590" style="fill:transparent;stroke:black" /><text x="1350" y="1590" font-size="8" style="fill:black">latitud: 42.597825</text><text x="1350" y="1600" font-size="8" style="fill:black">longitud: -5.57096</text><text x="1350" y="1610" font-size="8" style="fill:black">altitud: 837</text><rect x="900" y="1720" width="200" height="40" style="fill:white;stroke:black;stroke-width:1" /><text x="910" y="1730" font-size="10" style="fill:blue">residencia</text><path d="M880 1540 C900 1540 880 1740 900 1740" style="fill:transparent;stroke:black" /><rect x="1120" y="1720" width="200" height="40" style="fill:white;stroke:black;stroke-width:1" /><text x="1130" y="1730" font-size="10" style="fill:blue">lugarResidencia</text><path d="M1100 1740 C1120 1740 1100 1740 1120 1740" style="fill:transparent;stroke:black" /><text x="1130" y="1740" font-size="8" style="fill:black">nombre: Cangas de Onís</text><rect x="1340" y="1720" width="200" height="40" style="fill:white;stroke:black;stroke-width:1" /><text x="1350" y="1730" font-size="10" style="fill:blue">coordenadas</text><path d="M1320 1740 C1340 1740 1320 1740 1340 1740" style="fill:transparent;stroke:black" /><text x="1350" y="1740" font-size="8" style="fill:black">latitud: 43.313614</text><text x="1350" y="1750" font-size="8" style="fill:black">longitud: -5.06585</text><text x="1350" y="1760" font-size="8" style="fill:black">altitud: 424</text><rect x="900" y="1870" width="200" height="40" style="fill:white;stroke:black;stroke-width:1" /><text x="910" y="1880" font-size="10" style="fill:blue">foto</text><path d="M880 1540 C900 1540 880 1890 900 1890" style="fill:transparent;stroke:black" /><rect x="966" y="1870" width="137" height="40" style="fill:green;stroke:black;stroke-width:1" /><text x="976" y="1880" font-size="8" style="fill:white">generico.jpg</text><rect x="460" y="2020" width="200" height="40" style="fill:white;stroke:black;stroke-width:1" /><text x="470" y="2030" font-size="10" style="fill:blue">persona</text><path d="M440 590 C460 590 440 2040 460 2040" style="fill:transparent;stroke:black" /><text x="470" y="2040" font-size="8" style="fill:black">nombre: Edgar</text><text x="470" y="2050" font-size="8" style="fill:black">apellidos: López Gómez</text><rect x="680" y="2020" width="200" height="40" style="fill:white;stroke:black;stroke-width:1" /><text x="690" y="2030" font-size="10" style="fill:blue">datos</text><path d="M660 2040 C680 2040 660 2040 680 2040" style="fill:transparent;stroke:black" /><rect x="900" y="2020" width="200" height="40" style="fill:white;stroke:black;stroke-width:1" /><text x="910" y="2030" font-size="10" style="fill:blue">nacimiento</text><path d="M880 2040 C900 2040 880 2040 900 2040" style="fill:transparent;stroke:black" /><rect x="1120" y="2020" width="200" height="40" style="fill:white;stroke:black;stroke-width:1" /><text x="1130" y="2030" font-size="10" style="fill:blue">fechaNacimiento</text><path d="M1100 2040 C1120 2040 1100 2040 1120 2040" style="fill:transparent;stroke:black" /><rect x="1186" y="2020" width="137" height="40" style="fill:green;stroke:black;stroke-width:1" /><text x="1196" y="2030" font-size="8" style="fill:white">22/06/2001</text><rect x="1120" y="2070" width="200" height="40" style="fill:white;stroke:black;stroke-width:1" /><text x="1130" y="2080" font-size="10" style="fill:blue">lugarNacimiento</text><path d="M1100 2040 C1120 2040 1100 2090 1120 2090" style="fill:transparent;stroke:black" /><text x="1130" y="2090" font-size="8" style="fill:black">nombre: Mieres</text><rect x="1340" y="2070" width="200" height="40" style="fill:white;stroke:black;stroke-width:1" /><text x="1350" y="2080" font-size="10" style="fill:blue">coordenadas</text><path d="M1320 2090 C1340 2090 1320 2090 1340 2090" style="fill:transparent;stroke:black" /><text x="1350" y="2090" font-size="8" style="fill:black">latitud: 43.248816</text><text x="1350" y="2100" font-size="8" style="fill:black">longitud: -5.772247</text><text x="1350" y="2110" font-size="8" style="fill:black">altitud: 386</text><rect x="900" y="2220" width="200" height="40" style="fill:white;stroke:black;stroke-width:1" /><text x="910" y="2230" font-size="10" style="fill:blue">residencia</text><path d="M880 2040 C900 2040 880 2240 900 2240" style="fill:transparent;stroke:black" /><rect x="1120" y="2220" width="200" height="40" style="fill:white;stroke:black;stroke-width:1" /><text x="1130" y="2230" font-size="10" style="fill:blue">lugarResidencia</text><path d="M1100 2240 C1120 2240 1100 2240 1120 2240" style="fill:transparent;stroke:black" /><text x="1130" y="2240" font-size="8" style="fill:black">nombre: Navia</text><rect x="1340" y="2220" width="200" height="40" style="fill:white;stroke:black;stroke-width:1" /><text x="1350" y="2230" font-size="10" style="fill:blue">coordenadas</text><path d="M1320 2240 C1340 2240 1320 2240 1340 2240" style="fill:transparent;stroke:black" /><text x="1350" y="2240" font-size="8" style="fill:black">latitud: 43.539111</text><text x="1350" y="2250" font-size="8" style="fill:black">longitud: -6.72337</text><text x="1350" y="2260" font-size="8" style="fill:black">altitud: 55</text><rect x="900" y="2370" width="200" height="40" style="fill:white;stroke:black;stroke-width:1" /><text x="910" y="2380" font-size="10" style="fill:blue">foto</text><path d="M880 2040 C900 2040 880 2390 900 2390" style="fill:transparent;stroke:black" /><rect x="966" y="2370" width="137" height="40" style="fill:green;stroke:black;stroke-width:1" /><text x="976" y="2380" font-size="8" style="fill:white">generico.jpg</text><rect x="240" y="2570" width="200" height="40" style="fill:white;stroke:black;stroke-width:1" /><text x="250" y="2580" font-size="10" style="fill:blue">persona</text><path d="M220 40 C240 40 220 2590 240 2590" style="fill:transparent;stroke:black" /><text x="250" y="2590" font-size="8" style="fill:black">nombre: Laura</text><text x="250" y="2600" font-size="8" style="fill:black">apellidos: Menéndez Díaz</text><rect x="460" y="2570" width="200" height="40" style="fill:white;stroke:black;stroke-width:1" /><text x="470" y="2580" font-size="10" style="fill:blue">datos</text><path d="M440 2590 C460 2590 440 2590 460 2590" style="fill:transparent;stroke:black" /><rect x="680" y="2570" width="200" height="40" style="fill:white;stroke:black;stroke-width:1" /><text x="690" y="2580" font-size="10" style="fill:blue">nacimiento</text><path d="M660 2590 C680 2590 660 2590 680 2590" style="fill:transparent;stroke:black" /><rect x="900" y="2570" width="200" height="40" style="fill:white;stroke:black;stroke-width:1" /><text x="910" y="2580" font-size="10" style="fill:blue">fechaNacimiento</text><path d="M880 2590 C900 2590 880 2590 900 2590" style="fill:transparent;stroke:black" /><rect x="966" y="2570" width="137" height="40" style="fill:green;stroke:black;stroke-width:1" /><text x="976" y="2580" font-size="8" style="fill:white">14/02/2001</text><rect x="900" y="2620" width="200" height="40" style="fill:white;stroke:black;stroke-width:1" /><text x="910" y="2630" font-size="10" style="fill:blue">lugarNacimiento</text><path d="M880 2590 C900 2590 880 2640 900 2640" style="fill:transparent;stroke:black" /><text x="910" y="2640" font-size="8" style="fill:black">nombre: Avilés</text><rect x="1120" y="2620" width="200" height="40" style="fill:white;stroke:black;stroke-width:1" /><text x="1130" y="2630" font-size="10" style="fill:blue">coordenadas</text><path d="M1100 2640 C1120 2640 1100 2640 1120 2640" style="fill:transparent;stroke:black" /><text x="1130" y="2640" font-size="8" style="fill:black">latitud: 43.555444</text><text x="1130" y="2650" font-size="8" style="fill:black">longitud: -5.922247</text><text x="1130" y="2660" font-size="8" style="fill:black">altitud: 27</text><rect x="680" y="2770" width="200" height="40" style="fill:white;stroke:black;stroke-width:1" /><text x="690" y="2780" font-size="10" style="fill:blue">residencia</text><path d="M660 2590 C680 2590 660 2790 680 2790" style="fill:transparent;stroke:black" /><rect x="900" y="2770" width="200" height="40" style="fill:white;stroke:black;stroke-width:1" /><text x="910" y="2780" font-size="10" style="fill:blue">lugarResidencia</text><path d="M880 2790 C900 2790 880 2790 900 2790" style="fill:transparent;stroke:black" /><text x="910" y="2790" font-size="8" style="fill:black">nombre: Lugones</text><rect x="1120" y="2770" width="200" height="40" style="fill:white;stroke:black;stroke-width:1" /><text x="1130" y="2780" font-size="10" style="fill:blue">coordenadas</text><path d="M1100 2790 C1120 2790 1100 2790 1120 2790" style="fill:transparent;stroke:black" /><text x="1130" y="2790" font-size="8" style="fill:black">latitud: 43.402768</text><text x="1130" y="2800" font-size="8" style="fill:black">longitud: -5.810479</text><text x="1130" y="2810" font-size="8" style="fill:black">altitud: 166</text><rect x="680" y="2920" width="200" height="40" style="fill:white;stroke:black;stroke-width:1" /><text x="690" y="2930" font-size="10" style="fill:blue">foto</text><path d="M660 2590 C680 2590 660 2940 680 2940" style="fill:transparent;stroke:black" /><rect x="746" y="2920" width="137" height="40" style="fill:green;stroke:black;stroke-width:1" /><text x="756" y="2930" font-size="8" style="fill:white">generico.jpg</text><rect x="460" y="3020" width="200" height="40" style="fill:white;stroke:black;stroke-width:1" /><text x="470" y="3030" font-size="10" style="fill:blue">persona</text><path d="M440 2590 C460 2590 440 3040 460 3040" style="fill:transparent;stroke:black" /><text x="470" y="3040" font-size="8" style="fill:black">nombre: Mireia</text><text x="470" y="3050" font-size="8" style="fill:black">apellidos: García Rodríguez</text><rect x="680" y="3020" width="200" height="40" style="fill:white;stroke:black;stroke-width:1" /><text x="690" y="3030" font-size="10" style="fill:blue">datos</text><path d="M660 3040 C680 3040 660 3040 680 3040" style="fill:transparent;stroke:black" /><rect x="900" y="3020" width="200" height="40" style="fill:white;stroke:black;stroke-width:1" /><text x="910" y="3030" font-size="10" style="fill:blue">nacimiento</text><path d="M880 3040 C900 3040 880 3040 900 3040" style="fill:transparent;stroke:black" /><rect x="1120" y="3020" width="200" height="40" style="fill:white;stroke:black;stroke-width:1" /><text x="1130" y="3030" font-size="10" style="fill:blue">fechaNacimiento</text><path d="M1100 3040 C1120 3040 1100 3040 1120 3040" style="fill:transparent;stroke:black" /><rect x="1186" y="3020" width="137" height="40" style="fill:green;stroke:black;stroke-width:1" /><text x="1196" y="3030" font-size="8" style="fill:white">29/02/2002</text><rect x="1120" y="3070" width="200" height="40" style="fill:white;stroke:black;stroke-width:1" /><text x="1130" y="3080" font-size="10" style="fill:blue">lugarNacimiento</text><path d="M1100 3040 C1120 3040 1100 3090 1120 3090" style="fill:transparent;stroke:black" /><text x="1130" y="3090" font-size="8" style="fill:black">nombre: Pola de Lena</text><rect x="1340" y="3070" width="200" height="40" style="fill:white;stroke:black;stroke-width:1" /><text x="1350" y="3080" font-size="10" style="fill:blue">coordenadas</text><path d="M1320 3090 C1340 3090 1320 3090 1340 3090" style="fill:transparent;stroke:black" /><text x="1350" y="3090" font-size="8" style="fill:black">latitud: 43.161569</text><text x="1350" y="3100" font-size="8" style="fill:black">longitud: -5.828135</text><text x="1350" y="3110" font-size="8" style="fill:black">altitud: 502</text><rect x="900" y="3220" width="200" height="40" style="fill:white;stroke:black;stroke-width:1" /><text x="910" y="3230" font-size="10" style="fill:blue">residencia</text><path d="M880 3040 C900 3040 880 3240 900 3240" style="fill:transparent;stroke:black" /><rect x="1120" y="3220" width="200" height="40" style="fill:white;stroke:black;stroke-width:1" /><text x="1130" y="3230" font-size="10" style="fill:blue">lugarResidencia</text><path d="M1100 3240 C1120 3240 1100 3240 1120 3240" style="fill:transparent;stroke:black" /><text x="1130" y="3240" font-size="8" style="fill:black">nombre: Tabladiello</text><rect x="1340" y="3220" width="200" height="40" style="fill:white;stroke:black;stroke-width:1" /><text x="1350" y="3230" font-size="10" style="fill:blue">coordenadas</text><path d="M1320 3240 C1340 3240 1320 3240 1340 3240" style="fill:transparent;stroke:black" /><text x="1350" y="3240" font-size="8" style="fill:black">latitud: 43.393217</text><text x="1350" y="3250" font-size="8" style="fill:black">longitud: -5.606987</text><text x="1350" y="3260" font-size="8" style="fill:black">altitud: 270</text><rect x="900" y="3370" width="200" height="40" style="fill:white;stroke:black;stroke-width:1" /><text x="910" y="3380" font-size="10" style="fill:blue">foto</text><path d="M880 3040 C900 3040 880 3390 900 3390" style="fill:transparent;stroke:black" /><rect x="966" y="3370" width="137" height="40" style="fill:green;stroke:black;stroke-width:1" /><text x="976" y="3380" font-size="8" style="fill:white">generico.jpg</text><rect x="460" y="3520" width="200" height="40" style="fill:white;stroke:black;stroke-width:1" /><text x="470" y="3530" font-size="10" style="fill:blue">persona</text><path d="M440 2590 C460 2590 440 3540 460 3540" style="fill:transparent;stroke:black" /><text x="470" y="3540" font-size="8" style="fill:black">nombre: Lara</text><text x="470" y="3550" font-size="8" style="fill:black">apellidos: Díaz García</text><rect x="680" y="3520" width="200" height="40" style="fill:white;stroke:black;stroke-width:1" /><text x="690" y="3530" font-size="10" style="fill:blue">datos</text><path d="M660 3540 C680 3540 660 3540 680 3540" style="fill:transparent;stroke:black" /><rect x="900" y="3520" width="200" height="40" style="fill:white;stroke:black;stroke-width:1" /><text x="910" y="3530" font-size="10" style="fill:blue">nacimiento</text><path d="M880 3540 C900 3540 880 3540 900 3540" style="fill:transparent;stroke:black" /><rect x="1120" y="3520" width="200" height="40" style="fill:white;stroke:black;stroke-width:1" /><text x="1130" y="3530" font-size="10" style="fill:blue">fechaNacimiento</text><path d="M1100 3540 C1120 3540 1100 3540 1120 3540" style="fill:transparent;stroke:black" /><rect x="1186" y="3520" width="137" height="40" style="fill:green;stroke:black;stroke-width:1" /><text x="1196" y="3530" font-size="8" style="fill:white">02/11/2001</text><rect x="1120" y="3570" width="200" height="40" style="fill:white;stroke:black;stroke-width:1" /><text x="1130" y="3580" font-size="10" style="fill:blue">lugarNacimiento</text><path d="M1100 3540 C1120 3540 1100 3590 1120 3590" style="fill:transparent;stroke:black" /><text x="1130" y="3590" font-size="8" style="fill:black">nombre: Cangas de Narcea</text><rect x="1340" y="3570" width="200" height="40" style="fill:white;stroke:black;stroke-width:1" /><text x="1350" y="3580" font-size="10" style="fill:blue">coordenadas</text><path d="M1320 3590 C1340 3590 1320 3590 1340 3590" style="fill:transparent;stroke:black" /><text x="1350" y="3590" font-size="8" style="fill:black">latitud: 43.238485 </text><text x="1350" y="3600" font-size="8" style="fill:black">longitud: -6.506993</text><text x="1350" y="3610" font-size="8" style="fill:black">altitud: 523</text><rect x="900" y="3720" width="200" height="40" style="fill:white;stroke:black;stroke-width:1" /><text x="910" y="3730" font-size="10" style="fill:blue">residencia</text><path d="M880 3540 C900 3540 880 3740 900 3740" style="fill:transparent;stroke:black" /><rect x="1120" y="3720" width="200" height="40" style="fill:white;stroke:black;stroke-width:1" /><text x="1130" y="3730" font-size="10" style="fill:blue">lugarResidencia</text><path d="M1100 3740 C1120 3740 1100 3740 1120 3740" style="fill:transparent;stroke:black" /><text x="1130" y="3740" font-size="8" style="fill:black">nombre: Viella</text><rect x="1340" y="3720" width="200" height="40" style="fill:white;stroke:black;stroke-width:1" /><text x="1350" y="3730" font-size="10" style="fill:blue">coordenadas</text><path d="M1320 3740 C1340 3740 1320 3740 1340 3740" style="fill:transparent;stroke:black" /><text x="1350" y="3740" font-size="8" style="fill:black">latitud: 43.399113</text><text x="1350" y="3750" font-size="8" style="fill:black">longitud: -5.784678</text><text x="1350" y="3760" font-size="8" style="fill:black">altitud: 179</text><rect x="900" y="3870" width="200" height="40" style="fill:white;stroke:black;stroke-width:1" /><text x="910" y="3880" font-size="10" style="fill:blue">foto</text><path d="M880 3540 C900 3540 880 3890 900 3890" style="fill:transparent;stroke:black" /><rect x="966" y="3870" width="137" height="40" style="fill:green;stroke:black;stroke-width:1" /><text x="976" y="3880" font-size="8" style="fill:white">generico.jpg</text><rect x="460" y="4020" width="200" height="40" style="fill:white;stroke:black;stroke-width:1" /><text x="470" y="4030" font-size="10" style="fill:blue">persona</text><path d="M440 2590 C460 2590 440 4040 460 4040" style="fill:transparent;stroke:black" /><text x="470" y="4040" font-size="8" style="fill:black">nombre: Enrique</text><text x="470" y="4050" font-size="8" style="fill:black">apellidos: Riesgo García</text><rect x="680" y="4020" width="200" height="40" style="fill:white;stroke:black;stroke-width:1" /><text x="690" y="4030" font-size="10" style="fill:blue">datos</text><path d="M660 4040 C680 4040 660 4040 680 4040" style="fill:transparent;stroke:black" /><rect x="900" y="4020" width="200" height="40" style="fill:white;stroke:black;stroke-width:1" /><text x="910" y="4030" font-size="10" style="fill:blue">nacimiento</text><path d="M880 4040 C900 4040 880 4040 900 4040" style="fill:transparent;stroke:black" /><rect x="1120" y="4020" width="200" height="40" style="fill:white;stroke:black;stroke-width:1" /><text x="1130" y="4030" font-size="10" style="fill:blue">fechaNacimiento</text><path d="M1100 4040 C1120 4040 1100 4040 1120 4040" style="fill:transparent;stroke:black" /><rect x="1186" y="4020" width="137" height="40" style="fill:green;stroke:black;stroke-width:1" /><text x="1196" y="4030" font-size="8" style="fill:white">28/12/2001</text><rect x="1120" y="4070" width="200" height="40" style="fill:white;stroke:black;stroke-width:1" /><text x="1130" y="4080" font-size="10" style="fill:blue">lugarNacimiento</text><path d="M1100 4040 C1120 4040 1100 4090 1120 4090" style="fill:transparent;stroke:black" /><text x="1130" y="4090" font-size="8" style="fill:black">nombre: Lugo</text><rect x="1340" y="4070" width="200" height="40" style="fill:white;stroke:black;stroke-width:1" /><text x="1350" y="4080" font-size="10" style="fill:blue">coordenadas</text><path d="M1320 4090 C1340 4090 1320 4090 1340 4090" style="fill:transparent;stroke:black" /><text x="1350" y="4090" font-size="8" style="fill:black">latitud: 43.046225</text><text x="1350" y="4100" font-size="8" style="fill:black">longitud: -7.473992</text><text x="1350" y="4110" font-size="8" style="fill:black">altitud: 525</text><rect x="900" y="4220" width="200" height="40" style="fill:white;stroke:black;stroke-width:1" /><text x="910" y="4230" font-size="10" style="fill:blue">residencia</text><path d="M880 4040 C900 4040 880 4240 900 4240" style="fill:transparent;stroke:black" /><rect x="1120" y="4220" width="200" height="40" style="fill:white;stroke:black;stroke-width:1" /><text x="1130" y="4230" font-size="10" style="fill:blue">lugarResidencia</text><path d="M1100 4240 C1120 4240 1100 4240 1120 4240" style="fill:transparent;stroke:black" /><text x="1130" y="4240" font-size="8" style="fill:black">nombre: Ourense</text><rect x="1340" y="4220" width="200" height="40" style="fill:white;stroke:black;stroke-width:1" /><text x="1350" y="4230" font-size="10" style="fill:blue">coordenadas</text><path d="M1320 4240 C1340 4240 1320 4240 1340 4240" style="fill:transparent;stroke:black" /><text x="1350" y="4240" font-size="8" style="fill:black">latitud: 42.196846</text><text x="1350" y="4250" font-size="8" style="fill:black">longitud: -7.61141</text><text x="1350" y="4260" font-size="8" style="fill:black">altitud: 609</text><rect x="900" y="4370" width="200" height="40" style="fill:white;stroke:black;stroke-width:1" /><text x="910" y="4380" font-size="10" style="fill:blue">foto</text><path d="M880 4040 C900 4040 880 4390 900 4390" style="fill:transparent;stroke:black" /><rect x="966" y="4370" width="137" height="40" style="fill:green;stroke:black;stroke-width:1" /><text x="976" y="4380" font-size="8" style="fill:white">generico.jpg</text><rect x="240" y="4570" width="200" height="40" style="fill:white;stroke:black;stroke-width:1" /><text x="250" y="4580" font-size="10" style="fill:blue">persona</text><path d="M220 40 C240 40 220 4590 240 4590" style="fill:transparent;stroke:black" /><text x="250" y="4590" font-size="8" style="fill:black">nombre: Javier</text><text x="250" y="4600" font-size="8" style="fill:black">apellidos: Soldado Gómez</text><rect x="460" y="4570" width="200" height="40" style="fill:white;stroke:black;stroke-width:1" /><text x="470" y="4580" font-size="10" style="fill:blue">datos</text><path d="M440 4590 C460 4590 440 4590 460 4590" style="fill:transparent;stroke:black" /><rect x="680" y="4570" width="200" height="40" style="fill:white;stroke:black;stroke-width:1" /><text x="690" y="4580" font-size="10" style="fill:blue">nacimiento</text><path d="M660 4590 C680 4590 660 4590 680 4590" style="fill:transparent;stroke:black" /><rect x="900" y="4570" width="200" height="40" style="fill:white;stroke:black;stroke-width:1" /><text x="910" y="4580" font-size="10" style="fill:blue">fechaNacimiento</text><path d="M880 4590 C900 4590 880 4590 900 4590" style="fill:transparent;stroke:black" /><rect x="966" y="4570" width="137" height="40" style="fill:green;stroke:black;stroke-width:1" /><text x="976" y="4580" font-size="8" style="fill:white">14/07/2001</text><rect x="900" y="4620" width="200" height="40" style="fill:white;stroke:black;stroke-width:1" /><text x="910" y="4630" font-size="10" style="fill:blue">lugarNacimiento</text><path d="M880 4590 C900 4590 880 4640 900 4640" style="fill:transparent;stroke:black" /><text x="910" y="4640" font-size="8" style="fill:black">nombre: Tineo</text><rect x="1120" y="4620" width="200" height="40" style="fill:white;stroke:black;stroke-width:1" /><text x="1130" y="4630" font-size="10" style="fill:blue">coordenadas</text><path d="M1100 4640 C1120 4640 1100 4640 1120 4640" style="fill:transparent;stroke:black" /><text x="1130" y="4640" font-size="8" style="fill:black">latitud: 43.309275</text><text x="1130" y="4650" font-size="8" style="fill:black">longitud: -6.491952</text><text x="1130" y="4660" font-size="8" style="fill:black">altitud: 557</text><rect x="680" y="4770" width="200" height="40" style="fill:white;stroke:black;stroke-width:1" /><text x="690" y="4780" font-size="10" style="fill:blue">residencia</text><path d="M660 4590 C680 4590 660 4790 680 4790" style="fill:transparent;stroke:black" /><rect x="900" y="4770" width="200" height="40" style="fill:white;stroke:black;stroke-width:1" /><text x="910" y="4780" font-size="10" style="fill:blue">lugarResidencia</text><path d="M880 4790 C900 4790 880 4790 900 4790" style="fill:transparent;stroke:black" /><text x="910" y="4790" font-size="8" style="fill:black">nombre: Ribadeo</text><rect x="1120" y="4770" width="200" height="40" style="fill:white;stroke:black;stroke-width:1" /><text x="1130" y="4780" font-size="10" style="fill:blue">coordenadas</text><path d="M1100 4790 C1120 4790 1100 4790 1120 4790" style="fill:transparent;stroke:black" /><text x="1130" y="4790" font-size="8" style="fill:black">latitud: 43.5361589</text><text x="1130" y="4800" font-size="8" style="fill:black">longitud: -7.0436775</text><text x="1130" y="4810" font-size="8" style="fill:black">altitud: 68</text><rect x="680" y="4920" width="200" height="40" style="fill:white;stroke:black;stroke-width:1" /><text x="690" y="4930" font-size="10" style="fill:blue">foto</text><path d="M660 4590 C680 4590 660 4940 680 4940" style="fill:transparent;stroke:black" /><rect x="746" y="4920" width="137" height="40" style="fill:green;stroke:black;stroke-width:1" /><text x="756" y="4930" font-size="8" style="fill:white">generico.jpg</text><rect x="460" y="5020" width="200" height="40" style="fill:white;stroke:black;stroke-width:1" /><text x="470" y="5030" font-size="10" style="fill:blue">persona</text><path d="M440 4590 C460 4590 440 5040 460 5040" style="fill:transparent;stroke:black" /><text x="470" y="5040" font-size="8" style="fill:black">nombre: Manuel</text><text x="470" y="5050" font-size="8" style="fill:black">apellidos: Beltrán Díaz</text><rect x="680" y="5020" width="200" height="40" style="fill:white;stroke:black;stroke-width:1" /><text x="690" y="5030" font-size="10" style="fill:blue">datos</text><path d="M660 5040 C680 5040 660 5040 680 5040" style="fill:transparent;stroke:black" /><rect x="900" y="5020" width="200" height="40" style="fill:white;stroke:black;stroke-width:1" /><text x="910" y="5030" font-size="10" style="fill:blue">nacimiento</text><path d="M880 5040 C900 5040 880 5040 900 5040" style="fill:transparent;stroke:black" /><rect x="1120" y="5020" width="200" height="40" style="fill:white;stroke:black;stroke-width:1" /><text x="1130" y="5030" font-size="10" style="fill:blue">fechaNacimiento</text><path d="M1100 5040 C1120 5040 1100 5040 1120 5040" style="fill:transparent;stroke:black" /><rect x="1186" y="5020" width="137" height="40" style="fill:green;stroke:black;stroke-width:1" /><text x="1196" y="5030" font-size="8" style="fill:white">12/10/2001</text><rect x="1120" y="5070" width="200" height="40" style="fill:white;stroke:black;stroke-width:1" /><text x="1130" y="5080" font-size="10" style="fill:blue">lugarNacimiento</text><path d="M1100 5040 C1120 5040 1100 5090 1120 5090" style="fill:transparent;stroke:black" /><text x="1130" y="5090" font-size="8" style="fill:black">nombre: La Coruña</text><rect x="1340" y="5070" width="200" height="40" style="fill:white;stroke:black;stroke-width:1" /><text x="1350" y="5080" font-size="10" style="fill:blue">coordenadas</text><path d="M1320 5090 C1340 5090 1320 5090 1340 5090" style="fill:transparent;stroke:black" /><text x="1350" y="5090" font-size="8" style="fill:black">latitud: 43.3709703</text><text x="1350" y="5100" font-size="8" style="fill:black">longitud: -8.3959425</text><text x="1350" y="5110" font-size="8" style="fill:black">altitud: 16</text><rect x="900" y="5220" width="200" height="40" style="fill:white;stroke:black;stroke-width:1" /><text x="910" y="5230" font-size="10" style="fill:blue">residencia</text><path d="M880 5040 C900 5040 880 5240 900 5240" style="fill:transparent;stroke:black" /><rect x="1120" y="5220" width="200" height="40" style="fill:white;stroke:black;stroke-width:1" /><text x="1130" y="5230" font-size="10" style="fill:blue">lugarResidencia</text><path d="M1100 5240 C1120 5240 1100 5240 1120 5240" style="fill:transparent;stroke:black" /><text x="1130" y="5240" font-size="8" style="fill:black">nombre: San Sebastián</text><rect x="1340" y="5220" width="200" height="40" style="fill:white;stroke:black;stroke-width:1" /><text x="1350" y="5230" font-size="10" style="fill:blue">coordenadas</text><path d="M1320 5240 C1340 5240 1320 5240 1340 5240" style="fill:transparent;stroke:black" /><text x="1350" y="5240" font-size="8" style="fill:black">latitud: 43.3224219</text><text x="1350" y="5250" font-size="8" style="fill:black">longitud: -1.9838889</text><text x="1350" y="5260" font-size="8" style="fill:black">altitud: 25</text><rect x="900" y="5370" width="200" height="40" style="fill:white;stroke:black;stroke-width:1" /><text x="910" y="5380" font-size="10" style="fill:blue">foto</text><path d="M880 5040 C900 5040 880 5390 900 5390" style="fill:transparent;stroke:black" /><rect x="966" y="5370" width="137" height="40" style="fill:green;stroke:black;stroke-width:1" /><text x="976" y="5380" font-size="8" style="fill:white">generico.jpg</text><rect x="460" y="5520" width="200" height="40" style="fill:white;stroke:black;stroke-width:1" /><text x="470" y="5530" font-size="10" style="fill:blue">persona</text><path d="M440 4590 C460 4590 440 5540 460 5540" style="fill:transparent;stroke:black" /><text x="470" y="5540" font-size="8" style="fill:black">nombre: Sara</text><text x="470" y="5550" font-size="8" style="fill:black">apellidos: Suárez Cabal</text><rect x="680" y="5520" width="200" height="40" style="fill:white;stroke:black;stroke-width:1" /><text x="690" y="5530" font-size="10" style="fill:blue">datos</text><path d="M660 5540 C680 5540 660 5540 680 5540" style="fill:transparent;stroke:black" /><rect x="900" y="5520" width="200" height="40" style="fill:white;stroke:black;stroke-width:1" /><text x="910" y="5530" font-size="10" style="fill:blue">nacimiento</text><path d="M880 5540 C900 5540 880 5540 900 5540" style="fill:transparent;stroke:black" /><rect x="1120" y="5520" width="200" height="40" style="fill:white;stroke:black;stroke-width:1" /><text x="1130" y="5530" font-size="10" style="fill:blue">fechaNacimiento</text><path d="M1100 5540 C1120 5540 1100 5540 1120 5540" style="fill:transparent;stroke:black" /><rect x="1186" y="5520" width="137" height="40" style="fill:green;stroke:black;stroke-width:1" /><text x="1196" y="5530" font-size="8" style="fill:white">01/04/2002</text><rect x="1120" y="5570" width="200" height="40" style="fill:white;stroke:black;stroke-width:1" /><text x="1130" y="5580" font-size="10" style="fill:blue">lugarNacimiento</text><path d="M1100 5540 C1120 5540 1100 5590 1120 5590" style="fill:transparent;stroke:black" /><text x="1130" y="5590" font-size="8" style="fill:black">nombre: Salamanca</text><rect x="1340" y="5570" width="200" height="40" style="fill:white;stroke:black;stroke-width:1" /><text x="1350" y="5580" font-size="10" style="fill:blue">coordenadas</text><path d="M1320 5590 C1340 5590 1320 5590 1340 5590" style="fill:transparent;stroke:black" /><text x="1350" y="5590" font-size="8" style="fill:black">latitud: 40.9651572</text><text x="1350" y="5600" font-size="8" style="fill:black">longitud: -5.6640182</text><text x="1350" y="5610" font-size="8" style="fill:black">altitud: 820</text><rect x="900" y="5720" width="200" height="40" style="fill:white;stroke:black;stroke-width:1" /><text x="910" y="5730" font-size="10" style="fill:blue">residencia</text><path d="M880 5540 C900 5540 880 5740 900 5740" style="fill:transparent;stroke:black" /><rect x="1120" y="5720" width="200" height="40" style="fill:white;stroke:black;stroke-width:1" /><text x="1130" y="5730" font-size="10" style="fill:blue">lugarResidencia</text><path d="M1100 5740 C1120 5740 1100 5740 1120 5740" style="fill:transparent;stroke:black" /><text x="1130" y="5740" font-size="8" style="fill:black">nombre: Burgos</text><rect x="1340" y="5720" width="200" height="40" style="fill:white;stroke:black;stroke-width:1" /><text x="1350" y="5730" font-size="10" style="fill:blue">coordenadas</text><path d="M1320 5740 C1340 5740 1320 5740 1340 5740" style="fill:transparent;stroke:black" /><text x="1350" y="5740" font-size="8" style="fill:black">latitud: 42.343926</text><text x="1350" y="5750" font-size="8" style="fill:black">longitud: -3.696977</text><text x="1350" y="5760" font-size="8" style="fill:black">altitud: 873</text><rect x="900" y="5870" width="200" height="40" style="fill:white;stroke:black;stroke-width:1" /><text x="910" y="5880" font-size="10" style="fill:blue">foto</text><path d="M880 5540 C900 5540 880 5890 900 5890" style="fill:transparent;stroke:black" /><rect x="966" y="5870" width="137" height="40" style="fill:green;stroke:black;stroke-width:1" /><text x="976" y="5880" font-size="8" style="fill:white">generico.jpg</text><rect x="460" y="6020" width="200" height="40" style="fill:white;stroke:black;stroke-width:1" /><text x="470" y="6030" font-size="10" style="fill:blue">persona</text><path d="M440 4590 C460 4590 440 6040 460 6040" style="fill:transparent;stroke:black" /><text x="470" y="6040" font-size="8" style="fill:black">nombre: Martina</text><text x="470" y="6050" font-size="8" style="fill:black">apellidos: Gómez García</text><rect x="680" y="6020" width="200" height="40" style="fill:white;stroke:black;stroke-width:1" /><text x="690" y="6030" font-size="10" style="fill:blue">datos</text><path d="M660 6040 C680 6040 660 6040 680 6040" style="fill:transparent;stroke:black" /><rect x="900" y="6020" width="200" height="40" style="fill:white;stroke:black;stroke-width:1" /><text x="910" y="6030" font-size="10" style="fill:blue">nacimiento</text><path d="M880 6040 C900 6040 880 6040 900 6040" style="fill:transparent;stroke:black" /><rect x="1120" y="6020" width="200" height="40" style="fill:white;stroke:black;stroke-width:1" /><text x="1130" y="6030" font-size="10" style="fill:blue">fechaNacimiento</text><path d="M1100 6040 C1120 6040 1100 6040 1120 6040" style="fill:transparent;stroke:black" /><rect x="1186" y="6020" width="137" height="40" style="fill:green;stroke:black;stroke-width:1" /><text x="1196" y="6030" font-size="8" style="fill:white">05/09/2002</text><rect x="1120" y="6070" width="200" height="40" style="fill:white;stroke:black;stroke-width:1" /><text x="1130" y="6080" font-size="10" style="fill:blue">lugarNacimiento</text><path d="M1100 6040 C1120 6040 1100 6090 1120 6090" style="fill:transparent;stroke:black" /><text x="1130" y="6090" font-size="8" style="fill:black">nombre: Zamora</text><rect x="1340" y="6070" width="200" height="40" style="fill:white;stroke:black;stroke-width:1" /><text x="1350" y="6080" font-size="10" style="fill:blue">coordenadas</text><path d="M1320 6090 C1340 6090 1320 6090 1340 6090" style="fill:transparent;stroke:black" /><text x="1350" y="6090" font-size="8" style="fill:black">latitud: 41.50429182277301</text><text x="1350" y="6100" font-size="8" style="fill:black">longitud: -5.744328378518475</text><text x="1350" y="6110" font-size="8" style="fill:black">altitud: 641</text><rect x="900" y="6220" width="200" height="40" style="fill:white;stroke:black;stroke-width:1" /><text x="910" y="6230" font-size="10" style="fill:blue">residencia</text><path d="M880 6040 C900 6040 880 6240 900 6240" style="fill:transparent;stroke:black" /><rect x="1120" y="6220" width="200" height="40" style="fill:white;stroke:black;stroke-width:1" /><text x="1130" y="6230" font-size="10" style="fill:blue">lugarResidencia</text><path d="M1100 6240 C1120 6240 1100 6240 1120 6240" style="fill:transparent;stroke:black" /><text x="1130" y="6240" font-size="8" style="fill:black">nombre: Vigo</text><rect x="1340" y="6220" width="200" height="40" style="fill:white;stroke:black;stroke-width:1" /><text x="1350" y="6230" font-size="10" style="fill:blue">coordenadas</text><path d="M1320 6240 C1340 6240 1320 6240 1340 6240" style="fill:transparent;stroke:black" /><text x="1350" y="6240" font-size="8" style="fill:black">latitud: 42.2376602</text><text x="1350" y="6250" font-size="8" style="fill:black">longitud: -8.7247205</text><text x="1350" y="6260" font-size="8" style="fill:black">altitud: 22</text><rect x="900" y="6370" width="200" height="40" style="fill:white;stroke:black;stroke-width:1" /><text x="910" y="6380" font-size="10" style="fill:blue">foto</text><path d="M880 6040 C900 6040 880 6390 900 6390" style="fill:transparent;stroke:black" /><rect x="966" y="6370" width="137" height="40" style="fill:green;stroke:black;stroke-width:1" /><text x="976" y="6380" font-size="8" style="fill:white">generico.jpg</text></svg>