<?xml version="1.0" encoding="utf-8"?><svg width="auto" height="6520" style="overflow:visible " version="1.1" xmlns="http://www.w3.org/2000/svg"><rect x="20" y="20" width="200" height="40" style="fill:white;stroke:black;stroke-width:1" /><text x="30" y="30" font-size="10" style="fill:blue">persona</text><text x="30" y="40" font-size="8" style="fill:black">nombre: Diego</text><text x="30" y="50" font-size="8" style="fill:black">apellidos: Villa García</text><rect x="240" y="20" width="200" height="40" style="fill:white;stroke:black;stroke-width:1" /><text x="250" y="30" font-size="10" style="fill:blue">datos</text><path d="M220 40 C240 40 220 40 240 40" style="fill:transparent;stroke:black" /><rect x="460" y="20" width="200" height="40" style="fill:white;stroke:black;stroke-width:1" /><text x="470" y="30" font-size="10" style="fill:blue">nacimiento</text><path d="M440 40 C460 40 440 40 460 40" style="fill:transparent;stroke:black" /><rect x="680" y="20" width="200" height="40" style="fill:white;stroke:black;stroke-width:1" /><text x="690" y="30" font-size="10" style="fill:blue">fechaNacimiento</text><path d="M660 40 C680 40 660 40 680 40" style="fill:transparent;stroke:black" /><rect x="746" y="20" width="137" height="40" style="fill:green;stroke:black;stroke-width:1" /><text x="756" y="30" font-size="8" style="fill:white">22/06/2001</text><rect x="680" y="70" width="200" height="40" style="fill:white;stroke:black;stroke-width:1" /><text x="690" y="80" font-size="10" style="fill:blue">lugarNacimiento</text><path d="M660 40 C680 40 660 90 680 90" style="fill:transparent;stroke:black" /><text x="690" y="90" font-size="8" style="fill:black">nombre: Oviedo</text><rect x="900" y="70" width="200" height="40" style="fill:white;stroke:black;stroke-width:1" /><text x="910" y="80" font-size="10" style="fill:blue">coordenadas</text><path d="M880 90 C900 90 880 90 900 90" style="fill:transparent;stroke:black" /><text x="910" y="90" font-size="8" style="fill:black">latitud: 43.360422</text><text x="910" y="100" font-size="8" style="fill:black">longitud: -5.845053</text><text x="910" y="110" font-size="8" style="fill:black">altitud: 242</text><rect x="460" y="220" width="200" height="40" style="fill:white;stroke:black;stroke-width:1" /><text x="470" y="230" font-size="10" style="fill:blue">residencia</text><path d="M440 40 C460 40 440 240 460 240" style="fill:transparent;stroke:black" /><rect x="680" y="220" width="200" height="40" style="fill:white;stroke:black;stroke-width:1" /><text x="690" y="230" font-size="10" style="fill:blue">lugarResidencia</text><path d="M660 240 C680 240 660 240 680 240" style="fill:transparent;stroke:black" /><text x="690" y="240" font-size="8" style="fill:black">nombre: La Corredoria</text><rect x="900" y="220" width="200" height="40" style="fill:white;stroke:black;stroke-width:1" /><text x="910" y="230" font-size="10" style="fill:blue">coordenadas</text><path d="M880 240 C900 240 880 240 900 240" style="fill:transparent;stroke:black" /><text x="910" y="240" font-size="8" style="fill:black">latitud: 43.387149</text><text x="910" y="250" font-size="8" style="fill:black">longitud: -5.823475</text><text x="910" y="260" font-size="8" style="fill:black">altitud: 166</text><rect x="460" y="370" width="200" height="40" style="fill:white;stroke:black;stroke-width:1" /><text x="470" y="380" font-size="10" style="fill:blue">foto</text><path d="M440 40 C460 40 440 390 460 390" style="fill:transparent;stroke:black" /><rect x="526" y="370" width="137" height="40" style="fill:green;stroke:black;stroke-width:1" /><text x="536" y="380" font-size="8" style="fill:white">generico.jpg</text><rect x="240" y="470" width="200" height="40" style="fill:white;stroke:black;stroke-width:1" /><text x="250" y="480" font-size="10" style="fill:blue">persona</text><path d="M220 40 C240 40 220 490 240 490" style="fill:transparent;stroke:black" /><text x="250" y="490" font-size="8" style="fill:black">nombre: Eduardo</text><text x="250" y="500" font-size="8" style="fill:black">apellidos: Martínez Suárez</text><rect x="460" y="470" width="200" height="40" style="fill:white;stroke:black;stroke-width:1" /><text x="470" y="480" font-size="10" style="fill:blue">datos</text><path d="M440 490 C460 490 440 490 460 490" style="fill:transparent;stroke:black" /><rect x="680" y="470" width="200" height="40" style="fill:white;stroke:black;stroke-width:1" /><text x="690" y="480" font-size="10" style="fill:blue">nacimiento</text><path d="M660 490 C680 490 660 490 680 490" style="fill:transparent;stroke:black" /><rect x="900" y="470" width="200" height="40" style="fill:white;stroke:black;stroke-width:1" /><text x="910" y="480" font-size="10" style="fill:blue">fechaNacimiento</text><path d="M880 490 C900 490 880 490 900 490" style="fill:transparent;stroke:black" /><rect x="966" y="470" width="137" height="40" style="fill:green;stroke:black;stroke-width:1" /><text x="976" y="480" font-size="8" style="fill:white">12/08/2001</text><rect x="900" y="520" width="200" height="40" style="fill:white;stroke:black;stroke-width:1" /><text x="910" y="530" font-size="10" style="fill:blue">lugarNacimiento</text><path d="M880 490 C900 490 880 540 900 540" style="fill:transparent;stroke:black" /><text x="910" y="540" font-size="8" style="fill:black">nombre: Gijón</text><rect x="1120" y="520" width="200" height="40" style="fill:white;stroke:black;stroke-width:1" /><text x="1130" y="530" font-size="10" style="fill:blue">coordenadas</text><path d="M1100 540 C1120 540 1100 540 1120 540" style="fill:transparent;stroke:black" /><text x="1130" y="540" font-size="8" style="fill:black">latitud: 43.544942</text><text x="1130" y="550" font-size="8" style="fill:black">longitud: -5.66275</text><text x="1130" y="560" font-size="8" style="fill:black">altitud: 0</text><rect x="680" y="670" width="200" height="40" style="fill:white;stroke:black;stroke-width:1" /><text x="690" y="680" font-size="10" style="fill:blue">residencia</text><path d="M660 490 C680 490 660 690 680 690" style="fill:transparent;stroke:black" /><rect x="900" y="670" width="200" height="40" style="fill:white;stroke:black;stroke-width:1" /><text x="910" y="680" font-size="10" style="fill:blue">lugarResidencia</text><path d="M880 690 C900 690 880 690 900 690" style="fill:transparent;stroke:black" /><text x="910" y="690" font-size="8" style="fill:black">nombre: Langreo</text><rect x="1120" y="670" width="200" height="40" style="fill:white;stroke:black;stroke-width:1" /><text x="1130" y="680" font-size="10" style="fill:blue">coordenadas</text><path d="M1100 690 C1120 690 1100 690 1120 690" style="fill:transparent;stroke:black" /><text x="1130" y="690" font-size="8" style="fill:black">latitud: 43.295013</text><text x="1130" y="700" font-size="8" style="fill:black">longitud: -5.683431</text><text x="1130" y="710" font-size="8" style="fill:black">altitud: 280</text><rect x="680" y="820" width="200" height="40" style="fill:white;stroke:black;stroke-width:1" /><text x="690" y="830" font-size="10" style="fill:blue">foto</text><path d="M660 490 C680 490 660 840 680 840" style="fill:transparent;stroke:black" /><rect x="746" y="820" width="137" height="40" style="fill:green;stroke:black;stroke-width:1" /><text x="756" y="830" font-size="8" style="fill:white">generico.jpg</text><rect x="460" y="920" width="200" height="40" style="fill:white;stroke:black;stroke-width:1" /><text x="470" y="930" font-size="10" style="fill:blue">persona</text><path d="M440 490 C460 490 440 940 460 940" style="fill:transparent;stroke:black" /><text x="470" y="940" font-size="8" style="fill:black">nombre: Martín</text><text x="470" y="950" font-size="8" style="fill:black">apellidos: Suárez Gómez</text><rect x="680" y="920" width="200" height="40" style="fill:white;stroke:black;stroke-width:1" /><text x="690" y="930" font-size="10" style="fill:blue">datos</text><path d="M660 940 C680 940 660 940 680 940" style="fill:transparent;stroke:black" /><rect x="900" y="920" width="200" height="40" style="fill:white;stroke:black;stroke-width:1" /><text x="910" y="930" font-size="10" style="fill:blue">nacimiento</text><path d="M880 940 C900 940 880 940 900 940" style="fill:transparent;stroke:black" /><rect x="1120" y="920" width="200" height="40" style="fill:white;stroke:black;stroke-width:1" /><text x="1130" y="930" font-size="10" style="fill:blue">fechaNacimiento</text><path d="M1100 940 C1120 940 1100 940 1120 940" style="fill:transparent;stroke:black" /><rect x="1186" y="920" width="137" height="40" style="fill:green;stroke:black;stroke-width:1" /><text x="1196" y="930" font-size="8" style="fill:white">25/09/1999</text><rect x="1120" y="970" width="200" height="40" style="fill:white;stroke:black;stroke-width:1" /><text x="1130" y="980" font-size="10" style="fill:blue">lugarNacimiento</text><path d="M1100 940 C1120 940 1100 990 1120 990" style="fill:transparent;stroke:black" /><text x="1130" y="990" font-size="8" style="fill:black">nombre: Santander</text><rect x="1340" y="970" width="200" height="40" style="fill:white;stroke:black;stroke-width:1" /><text x="1350" y="980" font-size="10" style="fill:blue">coordenadas</text><path d="M1320 990 C1340 990 1320 990 1340 990" style="fill:transparent;stroke:black" /><text x="1350" y="990" font-size="8" style="fill:black">latitud: 43.462041</text><text x="1350" y="1000" font-size="8" style="fill:black">longitud: -3.809972</text><text x="1350" y="1010" font-size="8" style="fill:black">altitud: 23</text><rect x="900" y="1120" width="200" height="40" style="fill:white;stroke:black;stroke-width:1" /><text x="910" y="1130" font-size="10" style="fill:blue">residencia</text><path d="M880 940 C900 940 880 1140 900 1140" style="fill:transparent;stroke:black" /><rect x="1120" y="1120" width="200" height="40" style="fill:white;stroke:black;stroke-width:1" /><text x="1130" y="1130" font-size="10" style="fill:blue">lugarResidencia</text><path d="M1100 1140 C1120 1140 1100 1140 1120 1140" style="fill:transparent;stroke:black" /><text x="1130" y="1140" font-size="8" style="fill:black">nombre: Ribadesella</text><rect x="1340" y="1120" width="200" height="40" style="fill:white;stroke:black;stroke-width:1" /><text x="1350" y="1130" font-size="10" style="fill:blue">coordenadas</text><path d="M1320 1140 C1340 1140 1320 1140 1340 1140" style="fill:transparent;stroke:black" /><text x="1350" y="1140" font-size="8" style="fill:black">latitud: 43.461713</text><text x="1350" y="1150" font-size="8" style="fill:black">longitud: -5.058748</text><text x="1350" y="1160" font-size="8" style="fill:black">altitud: 0</text><rect x="900" y="1270" width="200" height="40" style="fill:white;stroke:black;stroke-width:1" /><text x="910" y="1280" font-size="10" style="fill:blue">foto</text><path d="M880 940 C900 940 880 1290 900 1290" style="fill:transparent;stroke:black" /><rect x="966" y="1270" width="137" height="40" style="fill:green;stroke:black;stroke-width:1" /><text x="976" y="1280" font-size="8" style="fill:white">generico.jpg</text><rect x="460" y="1420" width="200" height="40" style="fill:white;stroke:black;stroke-width:1" /><text x="470" y="1430" font-size="10" style="fill:blue">persona</text><path d="M440 490 C460 490 440 1440 460 1440" style="fill:transparent;stroke:black" /><text x="470" y="1440" font-size="8" style="fill:black">nombre: Marta</text><text x="470" y="1450" font-size="8" style="fill:black">apellidos: Pérez Pérez</text><rect x="680" y="1420" width="200" height="40" style="fill:white;stroke:black;stroke-width:1" /><text x="690" y="1430" font-size="10" style="fill:blue">datos</text><path d="M660 1440 C680 1440 660 1440 680 1440" style="fill:transparent;stroke:black" /><rect x="900" y="1420" width="200" height="40" style="fill:white;stroke:black;stroke-width:1" /><text x="910" y="1430" font-size="10" style="fill:blue">nacimiento</text><path d="M880 1440 C900 1440 880 1440 900 1440" style="fill:transparent;stroke:black" /><rect x="1120" y="1420" width="200" height="40" style="fill:white;stroke:black;stroke-width:1" /><text x="1130" y="1430" font-size="10" style="fill:blue">fechaNacimiento</text><path d="M1100 1440 C1120 1440 1100 1440 1120 1440" style="fill:transparent;stroke:black" /><rect x="1186" y="1420" width="137" height="40" style="fill:green;stroke:black;stroke-width:1" /><text x="1196" y="1430" font-size="8" style="fill:white">30/06/2001</text><rect x="1120" y="1470" width="200" height="40" style="fill:white;stroke:black;stroke-width:1" /><text x="1130" y="1480" font-size="10" style="fill:blue">lugarNacimiento</text><path d="M1100 1440 C1120 1440 1100 1490 1120 1490" style="fill:transparent;stroke:black" /><text x="1130" y="1490" font-size="8" style="fill:black">nombre: León</text><rect x="1340" y="1470" width="200" height="40" style="fill:white;stroke:black;stroke-width:1" /><text x="1350" y="1480" font-size="10" style="fill:blue">coordenadas</text><path d="M1320 1490 C1340 1490 1320 1490 1340 1490" style="fill:transparent;stroke:black" /><text x="1350" y="1490" font-size="8" style="fill:black">latitud: 42.597825</text><text x="1350" y="1500" font-size="8" style="fill:black">longitud: -5.57096</text><text x="1350" y="1510" font-size="8" style="fill:black">altitud: 837</text><rect x="900" y="1620" width="200" height="40" style="fill:white;stroke:black;stroke-width:1" /><text x="910" y="1630" font-size="10" style="fill:blue">residencia</text><path d="M880 1440 C900 1440 880 1640 900 1640" style="fill:transparent;stroke:black" /><rect x="1120" y="1620" width="200" height="40" style="fill:white;stroke:black;stroke-width:1" /><text x="1130" y="1630" font-size="10" style="fill:blue">lugarResidencia</text><path d="M1100 1640 C1120 1640 1100 1640 1120 1640" style="fill:transparent;stroke:black" /><text x="1130" y="1640" font-size="8" style="fill:black">nombre: Cangas de Onís</text><rect x="1340" y="1620" width="200" height="40" style="fill:white;stroke:black;stroke-width:1" /><text x="1350" y="1630" font-size="10" style="fill:blue">coordenadas</text><path d="M1320 1640 C1340 1640 1320 1640 1340 1640" style="fill:transparent;stroke:black" /><text x="1350" y="1640" font-size="8" style="fill:black">latitud: 43.313614</text><text x="1350" y="1650" font-size="8" style="fill:black">longitud: -5.06585</text><text x="1350" y="1660" font-size="8" style="fill:black">altitud: 424</text><rect x="900" y="1770" width="200" height="40" style="fill:white;stroke:black;stroke-width:1" /><text x="910" y="1780" font-size="10" style="fill:blue">foto</text><path d="M880 1440 C900 1440 880 1790 900 1790" style="fill:transparent;stroke:black" /><rect x="966" y="1770" width="137" height="40" style="fill:green;stroke:black;stroke-width:1" /><text x="976" y="1780" font-size="8" style="fill:white">generico.jpg</text><rect x="460" y="1920" width="200" height="40" style="fill:white;stroke:black;stroke-width:1" /><text x="470" y="1930" font-size="10" style="fill:blue">persona</text><path d="M440 490 C460 490 440 1940 460 1940" style="fill:transparent;stroke:black" /><text x="470" y="1940" font-size="8" style="fill:black">nombre: Edgar</text><text x="470" y="1950" font-size="8" style="fill:black">apellidos: López Gómez</text><rect x="680" y="1920" width="200" height="40" style="fill:white;stroke:black;stroke-width:1" /><text x="690" y="1930" font-size="10" style="fill:blue">datos</text><path d="M660 1940 C680 1940 660 1940 680 1940" style="fill:transparent;stroke:black" /><rect x="900" y="1920" width="200" height="40" style="fill:white;stroke:black;stroke-width:1" /><text x="910" y="1930" font-size="10" style="fill:blue">nacimiento</text><path d="M880 1940 C900 1940 880 1940 900 1940" style="fill:transparent;stroke:black" /><rect x="1120" y="1920" width="200" height="40" style="fill:white;stroke:black;stroke-width:1" /><text x="1130" y="1930" font-size="10" style="fill:blue">fechaNacimiento</text><path d="M1100 1940 C1120 1940 1100 1940 1120 1940" style="fill:transparent;stroke:black" /><rect x="1186" y="1920" width="137" height="40" style="fill:green;stroke:black;stroke-width:1" /><text x="1196" y="1930" font-size="8" style="fill:white">22/06/2001</text><rect x="1120" y="1970" width="200" height="40" style="fill:white;stroke:black;stroke-width:1" /><text x="1130" y="1980" font-size="10" style="fill:blue">lugarNacimiento</text><path d="M1100 1940 C1120 1940 1100 1990 1120 1990" style="fill:transparent;stroke:black" /><text x="1130" y="1990" font-size="8" style="fill:black">nombre: Mieres</text><rect x="1340" y="1970" width="200" height="40" style="fill:white;stroke:black;stroke-width:1" /><text x="1350" y="1980" font-size="10" style="fill:blue">coordenadas</text><path d="M1320 1990 C1340 1990 1320 1990 1340 1990" style="fill:transparent;stroke:black" /><text x="1350" y="1990" font-size="8" style="fill:black">latitud: 43.248816</text><text x="1350" y="2000" font-size="8" style="fill:black">longitud: -5.772247</text><text x="1350" y="2010" font-size="8" style="fill:black">altitud: 386</text><rect x="900" y="2120" width="200" height="40" style="fill:white;stroke:black;stroke-width:1" /><text x="910" y="2130" font-size="10" style="fill:blue">residencia</text><path d="M880 1940 C900 1940 880 2140 900 2140" style="fill:transparent;stroke:black" /><rect x="1120" y="2120" width="200" height="40" style="fill:white;stroke:black;stroke-width:1" /><text x="1130" y="2130" font-size="10" style="fill:blue">lugarResidencia</text><path d="M1100 2140 C1120 2140 1100 2140 1120 2140" style="fill:transparent;stroke:black" /><text x="1130" y="2140" font-size="8" style="fill:black">nombre: Navia</text><rect x="1340" y="2120" width="200" height="40" style="fill:white;stroke:black;stroke-width:1" /><text x="1350" y="2130" font-size="10" style="fill:blue">coordenadas</text><path d="M1320 2140 C1340 2140 1320 2140 1340 2140" style="fill:transparent;stroke:black" /><text x="1350" y="2140" font-size="8" style="fill:black">latitud: 43.539111</text><text x="1350" y="2150" font-size="8" style="fill:black">longitud: -6.72337</text><text x="1350" y="2160" font-size="8" style="fill:black">altitud: 55</text><rect x="900" y="2270" width="200" height="40" style="fill:white;stroke:black;stroke-width:1" /><text x="910" y="2280" font-size="10" style="fill:blue">foto</text><path d="M880 1940 C900 1940 880 2290 900 2290" style="fill:transparent;stroke:black" /><rect x="966" y="2270" width="137" height="40" style="fill:green;stroke:black;stroke-width:1" /><text x="976" y="2280" font-size="8" style="fill:white">generico.jpg</text><rect x="240" y="2470" width="200" height="40" style="fill:white;stroke:black;stroke-width:1" /><text x="250" y="2480" font-size="10" style="fill:blue">persona</text><path d="M220 40 C240 40 220 2490 240 2490" style="fill:transparent;stroke:black" /><text x="250" y="2490" font-size="8" style="fill:black">nombre: Laura</text><text x="250" y="2500" font-size="8" style="fill:black">apellidos: Menéndez Díaz</text><rect x="460" y="2470" width="200" height="40" style="fill:white;stroke:black;stroke-width:1" /><text x="470" y="2480" font-size="10" style="fill:blue">datos</text><path d="M440 2490 C460 2490 440 2490 460 2490" style="fill:transparent;stroke:black" /><rect x="680" y="2470" width="200" height="40" style="fill:white;stroke:black;stroke-width:1" /><text x="690" y="2480" font-size="10" style="fill:blue">nacimiento</text><path d="M660 2490 C680 2490 660 2490 680 2490" style="fill:transparent;stroke:black" /><rect x="900" y="2470" width="200" height="40" style="fill:white;stroke:black;stroke-width:1" /><text x="910" y="2480" font-size="10" style="fill:blue">fechaNacimiento</text><path d="M880 2490 C900 2490 880 2490 900 2490" style="fill:transparent;stroke:black" /><rect x="966" y="2470" width="137" height="40" style="fill:green;stroke:black;stroke-width:1" /><text x="976" y="2480" font-size="8" style="fill:white">14/02/2001</text><rect x="900" y="2520" width="200" height="40" style="fill:white;stroke:black;stroke-width:1" /><text x="910" y="2530" font-size="10" style="fill:blue">lugarNacimiento</text><path d="M880 2490 C900 2490 880 2540 900 2540" style="fill:transparent;stroke:black" /><text x="910" y="2540" font-size="8" style="fill:black">nombre: Avilés</text><rect x="1120" y="2520" width="200" height="40" style="fill:white;stroke:black;stroke-width:1" /><text x="1130" y="2530" font-size="10" style="fill:blue">coordenadas</text><path d="M1100 2540 C1120 2540 1100 2540 1120 2540" style="fill:transparent;stroke:black" /><text x="1130" y="2540" font-size="8" style="fill:black">latitud: 43.555444</text><text x="1130" y="2550" font-size="8" style="fill:black">longitud: -5.922247</text><text x="1130" y="2560" font-size="8" style="fill:black">altitud: 27</text><rect x="680" y="2670" width="200" height="40" style="fill:white;stroke:black;stroke-width:1" /><text x="690" y="2680" font-size="10" style="fill:blue">residencia</text><path d="M660 2490 C680 2490 660 2690 680 2690" style="fill:transparent;stroke:black" /><rect x="900" y="2670" width="200" height="40" style="fill:white;stroke:black;stroke-width:1" /><text x="910" y="2680" font-size="10" style="fill:blue">lugarResidencia</text><path d="M880 2690 C900 2690 880 2690 900 2690" style="fill:transparent;stroke:black" /><text x="910" y="2690" font-size="8" style="fill:black">nombre: Lugones</text><rect x="1120" y="2670" width="200" height="40" style="fill:white;stroke:black;stroke-width:1" /><text x="1130" y="2680" font-size="10" style="fill:blue">coordenadas</text><path d="M1100 2690 C1120 2690 1100 2690 1120 2690" style="fill:transparent;stroke:black" /><text x="1130" y="2690" font-size="8" style="fill:black">latitud: 43.402768</text><text x="1130" y="2700" font-size="8" style="fill:black">longitud: -5.810479</text><text x="1130" y="2710" font-size="8" style="fill:black">altitud: 166</text><rect x="680" y="2820" width="200" height="40" style="fill:white;stroke:black;stroke-width:1" /><text x="690" y="2830" font-size="10" style="fill:blue">foto</text><path d="M660 2490 C680 2490 660 2840 680 2840" style="fill:transparent;stroke:black" /><rect x="746" y="2820" width="137" height="40" style="fill:green;stroke:black;stroke-width:1" /><text x="756" y="2830" font-size="8" style="fill:white">generico.jpg</text><rect x="460" y="2920" width="200" height="40" style="fill:white;stroke:black;stroke-width:1" /><text x="470" y="2930" font-size="10" style="fill:blue">persona</text><path d="M440 2490 C460 2490 440 2940 460 2940" style="fill:transparent;stroke:black" /><text x="470" y="2940" font-size="8" style="fill:black">nombre: Mireia</text><text x="470" y="2950" font-size="8" style="fill:black">apellidos: García Rodríguez</text><rect x="680" y="2920" width="200" height="40" style="fill:white;stroke:black;stroke-width:1" /><text x="690" y="2930" font-size="10" style="fill:blue">datos</text><path d="M660 2940 C680 2940 660 2940 680 2940" style="fill:transparent;stroke:black" /><rect x="900" y="2920" width="200" height="40" style="fill:white;stroke:black;stroke-width:1" /><text x="910" y="2930" font-size="10" style="fill:blue">nacimiento</text><path d="M880 2940 C900 2940 880 2940 900 2940" style="fill:transparent;stroke:black" /><rect x="1120" y="2920" width="200" height="40" style="fill:white;stroke:black;stroke-width:1" /><text x="1130" y="2930" font-size="10" style="fill:blue">fechaNacimiento</text><path d="M1100 2940 C1120 2940 1100 2940 1120 2940" style="fill:transparent;stroke:black" /><rect x="1186" y="2920" width="137" height="40" style="fill:green;stroke:black;stroke-width:1" /><text x="1196" y="2930" font-size="8" style="fill:white">29/02/2002</text><rect x="1120" y="2970" width="200" height="40" style="fill:white;stroke:black;stroke-width:1" /><text x="1130" y="2980" font-size="10" style="fill:blue">lugarNacimiento</text><path d="M1100 2940 C1120 2940 1100 2990 1120 2990" style="fill:transparent;stroke:black" /><text x="1130" y="2990" font-size="8" style="fill:black">nombre: Pola de Lena</text><rect x="1340" y="2970" width="200" height="40" style="fill:white;stroke:black;stroke-width:1" /><text x="1350" y="2980" font-size="10" style="fill:blue">coordenadas</text><path d="M1320 2990 C1340 2990 1320 2990 1340 2990" style="fill:transparent;stroke:black" /><text x="1350" y="2990" font-size="8" style="fill:black">latitud: 43.161569</text><text x="1350" y="3000" font-size="8" style="fill:black">longitud: -5.828135</text><text x="1350" y="3010" font-size="8" style="fill:black">altitud: 502</text><rect x="900" y="3120" width="200" height="40" style="fill:white;stroke:black;stroke-width:1" /><text x="910" y="3130" font-size="10" style="fill:blue">residencia</text><path d="M880 2940 C900 2940 880 3140 900 3140" style="fill:transparent;stroke:black" /><rect x="1120" y="3120" width="200" height="40" style="fill:white;stroke:black;stroke-width:1" /><text x="1130" y="3130" font-size="10" style="fill:blue">lugarResidencia</text><path d="M1100 3140 C1120 3140 1100 3140 1120 3140" style="fill:transparent;stroke:black" /><text x="1130" y="3140" font-size="8" style="fill:black">nombre: Tabladiello</text><rect x="1340" y="3120" width="200" height="40" style="fill:white;stroke:black;stroke-width:1" /><text x="1350" y="3130" font-size="10" style="fill:blue">coordenadas</text><path d="M1320 3140 C1340 3140 1320 3140 1340 3140" style="fill:transparent;stroke:black" /><text x="1350" y="3140" font-size="8" style="fill:black">latitud: 43.393217</text><text x="1350" y="3150" font-size="8" style="fill:black">longitud: -5.606987</text><text x="1350" y="3160" font-size="8" style="fill:black">altitud: 270</text><rect x="900" y="3270" width="200" height="40" style="fill:white;stroke:black;stroke-width:1" /><text x="910" y="3280" font-size="10" style="fill:blue">foto</text><path d="M880 2940 C900 2940 880 3290 900 3290" style="fill:transparent;stroke:black" /><rect x="966" y="3270" width="137" height="40" style="fill:green;stroke:black;stroke-width:1" /><text x="976" y="3280" font-size="8" style="fill:white">generico.jpg</text><rect x="460" y="3420" width="200" height="40" style="fill:white;stroke:black;stroke-width:1" /><text x="470" y="3430" font-size="10" style="fill:blue">persona</text><path d="M440 2490 C460 2490 440 3440 460 3440" style="fill:transparent;stroke:black" /><text x="470" y="3440" font-size="8" style="fill:black">nombre: Lara</text><text x="470" y="3450" font-size="8" style="fill:black">apellidos: Díaz García</text><rect x="680" y="3420" width="200" height="40" style="fill:white;stroke:black;stroke-width:1" /><text x="690" y="3430" font-size="10" style="fill:blue">datos</text><path d="M660 3440 C680 3440 660 3440 680 3440" style="fill:transparent;stroke:black" /><rect x="900" y="3420" width="200" height="40" style="fill:white;stroke:black;stroke-width:1" /><text x="910" y="3430" font-size="10" style="fill:blue">nacimiento</text><path d="M880 3440 C900 3440 880 3440 900 3440" style="fill:transparent;stroke:black" /><rect x="1120" y="3420" width="200" height="40" style="fill:white;stroke:black;stroke-width:1" /><text x="1130" y="3430" font-size="10" style="fill:blue">fechaNacimiento</text><path d="M1100 3440 C1120 3440 1100 3440 1120 3440" style="fill:transparent;stroke:black" /><rect x="1186" y="3420" width="137" height="40" style="fill:green;stroke:black;stroke-width:1" /><text x="1196" y="3430" font-size="8" style="fill:white">02/11/2001</text><rect x="1120" y="3470" width="200" height="40" style="fill:white;stroke:black;stroke-width:1" /><text x="1130" y="3480" font-size="10" style="fill:blue">lugarNacimiento</text><path d="M1100 3440 C1120 3440 1100 3490 1120 3490" style="fill:transparent;stroke:black" /><text x="1130" y="3490" font-size="8" style="fill:black">nombre: Cangas de Narcea</text><rect x="1340" y="3470" width="200" height="40" style="fill:white;stroke:black;stroke-width:1" /><text x="1350" y="3480" font-size="10" style="fill:blue">coordenadas</text><path d="M1320 3490 C1340 3490 1320 3490 1340 3490" style="fill:transparent;stroke:black" /><text x="1350" y="3490" font-size="8" style="fill:black">latitud: 43.238485 </text><text x="1350" y="3500" font-size="8" style="fill:black">longitud: -6.506993</text><text x="1350" y="3510" font-size="8" style="fill:black">altitud: 523</text><rect x="900" y="3620" width="200" height="40" style="fill:white;stroke:black;stroke-width:1" /><text x="910" y="3630" font-size="10" style="fill:blue">residencia</text><path d="M880 3440 C900 3440 880 3640 900 3640" style="fill:transparent;stroke:black" /><rect x="1120" y="3620" width="200" height="40" style="fill:white;stroke:black;stroke-width:1" /><text x="1130" y="3630" font-size="10" style="fill:blue">lugarResidencia</text><path d="M1100 3640 C1120 3640 1100 3640 1120 3640" style="fill:transparent;stroke:black" /><text x="1130" y="3640" font-size="8" style="fill:black">nombre: Viella</text><rect x="1340" y="3620" width="200" height="40" style="fill:white;stroke:black;stroke-width:1" /><text x="1350" y="3630" font-size="10" style="fill:blue">coordenadas</text><path d="M1320 3640 C1340 3640 1320 3640 1340 3640" style="fill:transparent;stroke:black" /><text x="1350" y="3640" font-size="8" style="fill:black">latitud: 43.399113</text><text x="1350" y="3650" font-size="8" style="fill:black">longitud: -5.784678</text><text x="1350" y="3660" font-size="8" style="fill:black">altitud: 179</text><rect x="900" y="3770" width="200" height="40" style="fill:white;stroke:black;stroke-width:1" /><text x="910" y="3780" font-size="10" style="fill:blue">foto</text><path d="M880 3440 C900 3440 880 3790 900 3790" style="fill:transparent;stroke:black" /><rect x="966" y="3770" width="137" height="40" style="fill:green;stroke:black;stroke-width:1" /><text x="976" y="3780" font-size="8" style="fill:white">generico.jpg</text><rect x="460" y="3920" width="200" height="40" style="fill:white;stroke:black;stroke-width:1" /><text x="470" y="3930" font-size="10" style="fill:blue">persona</text><path d="M440 2490 C460 2490 440 3940 460 3940" style="fill:transparent;stroke:black" /><text x="470" y="3940" font-size="8" style="fill:black">nombre: Enrique</text><text x="470" y="3950" font-size="8" style="fill:black">apellidos: Riesgo García</text><rect x="680" y="3920" width="200" height="40" style="fill:white;stroke:black;stroke-width:1" /><text x="690" y="3930" font-size="10" style="fill:blue">datos</text><path d="M660 3940 C680 3940 660 3940 680 3940" style="fill:transparent;stroke:black" /><rect x="900" y="3920" width="200" height="40" style="fill:white;stroke:black;stroke-width:1" /><text x="910" y="3930" font-size="10" style="fill:blue">nacimiento</text><path d="M880 3940 C900 3940 880 3940 900 3940" style="fill:transparent;stroke:black" /><rect x="1120" y="3920" width="200" height="40" style="fill:white;stroke:black;stroke-width:1" /><text x="1130" y="3930" font-size="10" style="fill:blue">fechaNacimiento</text><path d="M1100 3940 C1120 3940 1100 3940 1120 3940" style="fill:transparent;stroke:black" /><rect x="1186" y="3920" width="137" height="40" style="fill:green;stroke:black;stroke-width:1" /><text x="1196" y="3930" font-size="8" style="fill:white">28/12/2001</text><rect x="1120" y="3970" width="200" height="40" style="fill:white;stroke:black;stroke-width:1" /><text x="1130" y="3980" font-size="10" style="fill:blue">lugarNacimiento</text><path d="M1100 3940 C1120 3940 1100 3990 1120 3990" style="fill:transparent;stroke:black" /><text x="1130" y="3990" font-size="8" style="fill:black">nombre: Lugo</text><rect x="1340" y="3970" width="200" height="40" style="fill:white;stroke:black;stroke-width:1" /><text x="1350" y="3980" font-size="10" style="fill:blue">coordenadas</text><path d="M1320 3990 C1340 3990 1320 3990 1340 3990" style="fill:transparent;stroke:black" /><text x="1350" y="3990" font-size="8" style="fill:black">latitud: 43.046225</text><text x="1350" y="4000" font-size="8" style="fill:black">longitud: -7.473992</text><text x="1350" y="4010" font-size="8" style="fill:black">altitud: 525</text><rect x="900" y="4120" width="200" height="40" style="fill:white;stroke:black;stroke-width:1" /><text x="910" y="4130" font-size="10" style="fill:blue">residencia</text><path d="M880 3940 C900 3940 880 4140 900 4140" style="fill:transparent;stroke:black" /><rect x="1120" y="4120" width="200" height="40" style="fill:white;stroke:black;stroke-width:1" /><text x="1130" y="4130" font-size="10" style="fill:blue">lugarResidencia</text><path d="M1100 4140 C1120 4140 1100 4140 1120 4140" style="fill:transparent;stroke:black" /><text x="1130" y="4140" font-size="8" style="fill:black">nombre: Ourense</text><rect x="1340" y="4120" width="200" height="40" style="fill:white;stroke:black;stroke-width:1" /><text x="1350" y="4130" font-size="10" style="fill:blue">coordenadas</text><path d="M1320 4140 C1340 4140 1320 4140 1340 4140" style="fill:transparent;stroke:black" /><text x="1350" y="4140" font-size="8" style="fill:black">latitud: 42.196846</text><text x="1350" y="4150" font-size="8" style="fill:black">longitud: -7.61141</text><text x="1350" y="4160" font-size="8" style="fill:black">altitud: 609</text><rect x="900" y="4270" width="200" height="40" style="fill:white;stroke:black;stroke-width:1" /><text x="910" y="4280" font-size="10" style="fill:blue">foto</text><path d="M880 3940 C900 3940 880 4290 900 4290" style="fill:transparent;stroke:black" /><rect x="966" y="4270" width="137" height="40" style="fill:green;stroke:black;stroke-width:1" /><text x="976" y="4280" font-size="8" style="fill:white">generico.jpg</text><rect x="240" y="4470" width="200" height="40" style="fill:white;stroke:black;stroke-width:1" /><text x="250" y="4480" font-size="10" style="fill:blue">persona</text><path d="M220 40 C240 40 220 4490 240 4490" style="fill:transparent;stroke:black" /><text x="250" y="4490" font-size="8" style="fill:black">nombre: Javier</text><text x="250" y="4500" font-size="8" style="fill:black">apellidos: Soldado Gómez</text><rect x="460" y="4470" width="200" height="40" style="fill:white;stroke:black;stroke-width:1" /><text x="470" y="4480" font-size="10" style="fill:blue">datos</text><path d="M440 4490 C460 4490 440 4490 460 4490" style="fill:transparent;stroke:black" /><rect x="680" y="4470" width="200" height="40" style="fill:white;stroke:black;stroke-width:1" /><text x="690" y="4480" font-size="10" style="fill:blue">nacimiento</text><path d="M660 4490 C680 4490 660 4490 680 4490" style="fill:transparent;stroke:black" /><rect x="900" y="4470" width="200" height="40" style="fill:white;stroke:black;stroke-width:1" /><text x="910" y="4480" font-size="10" style="fill:blue">fechaNacimiento</text><path d="M880 4490 C900 4490 880 4490 900 4490" style="fill:transparent;stroke:black" /><rect x="966" y="4470" width="137" height="40" style="fill:green;stroke:black;stroke-width:1" /><text x="976" y="4480" font-size="8" style="fill:white">14/07/2001</text><rect x="900" y="4520" width="200" height="40" style="fill:white;stroke:black;stroke-width:1" /><text x="910" y="4530" font-size="10" style="fill:blue">lugarNacimiento</text><path d="M880 4490 C900 4490 880 4540 900 4540" style="fill:transparent;stroke:black" /><text x="910" y="4540" font-size="8" style="fill:black">nombre: Tineo</text><rect x="1120" y="4520" width="200" height="40" style="fill:white;stroke:black;stroke-width:1" /><text x="1130" y="4530" font-size="10" style="fill:blue">coordenadas</text><path d="M1100 4540 C1120 4540 1100 4540 1120 4540" style="fill:transparent;stroke:black" /><text x="1130" y="4540" font-size="8" style="fill:black">latitud: 43.309275</text><text x="1130" y="4550" font-size="8" style="fill:black">longitud: -6.491952</text><text x="1130" y="4560" font-size="8" style="fill:black">altitud: 557</text><rect x="680" y="4670" width="200" height="40" style="fill:white;stroke:black;stroke-width:1" /><text x="690" y="4680" font-size="10" style="fill:blue">residencia</text><path d="M660 4490 C680 4490 660 4690 680 4690" style="fill:transparent;stroke:black" /><rect x="900" y="4670" width="200" height="40" style="fill:white;stroke:black;stroke-width:1" /><text x="910" y="4680" font-size="10" style="fill:blue">lugarResidencia</text><path d="M880 4690 C900 4690 880 4690 900 4690" style="fill:transparent;stroke:black" /><text x="910" y="4690" font-size="8" style="fill:black">nombre: Ribadeo</text><rect x="1120" y="4670" width="200" height="40" style="fill:white;stroke:black;stroke-width:1" /><text x="1130" y="4680" font-size="10" style="fill:blue">coordenadas</text><path d="M1100 4690 C1120 4690 1100 4690 1120 4690" style="fill:transparent;stroke:black" /><text x="1130" y="4690" font-size="8" style="fill:black">latitud: 43.5361589</text><text x="1130" y="4700" font-size="8" style="fill:black">longitud: -7.0436775</text><text x="1130" y="4710" font-size="8" style="fill:black">altitud: 68</text><rect x="680" y="4820" width="200" height="40" style="fill:white;stroke:black;stroke-width:1" /><text x="690" y="4830" font-size="10" style="fill:blue">foto</text><path d="M660 4490 C680 4490 660 4840 680 4840" style="fill:transparent;stroke:black" /><rect x="746" y="4820" width="137" height="40" style="fill:green;stroke:black;stroke-width:1" /><text x="756" y="4830" font-size="8" style="fill:white">generico.jpg</text><rect x="460" y="4920" width="200" height="40" style="fill:white;stroke:black;stroke-width:1" /><text x="470" y="4930" font-size="10" style="fill:blue">persona</text><path d="M440 4490 C460 4490 440 4940 460 4940" style="fill:transparent;stroke:black" /><text x="470" y="4940" font-size="8" style="fill:black">nombre: Manuel</text><text x="470" y="4950" font-size="8" style="fill:black">apellidos: Beltrán Díaz</text><rect x="680" y="4920" width="200" height="40" style="fill:white;stroke:black;stroke-width:1" /><text x="690" y="4930" font-size="10" style="fill:blue">datos</text><path d="M660 4940 C680 4940 660 4940 680 4940" style="fill:transparent;stroke:black" /><rect x="900" y="4920" width="200" height="40" style="fill:white;stroke:black;stroke-width:1" /><text x="910" y="4930" font-size="10" style="fill:blue">nacimiento</text><path d="M880 4940 C900 4940 880 4940 900 4940" style="fill:transparent;stroke:black" /><rect x="1120" y="4920" width="200" height="40" style="fill:white;stroke:black;stroke-width:1" /><text x="1130" y="4930" font-size="10" style="fill:blue">fechaNacimiento</text><path d="M1100 4940 C1120 4940 1100 4940 1120 4940" style="fill:transparent;stroke:black" /><rect x="1186" y="4920" width="137" height="40" style="fill:green;stroke:black;stroke-width:1" /><text x="1196" y="4930" font-size="8" style="fill:white">12/10/2001</text><rect x="1120" y="4970" width="200" height="40" style="fill:white;stroke:black;stroke-width:1" /><text x="1130" y="4980" font-size="10" style="fill:blue">lugarNacimiento</text><path d="M1100 4940 C1120 4940 1100 4990 1120 4990" style="fill:transparent;stroke:black" /><text x="1130" y="4990" font-size="8" style="fill:black">nombre: La Coruña</text><rect x="1340" y="4970" width="200" height="40" style="fill:white;stroke:black;stroke-width:1" /><text x="1350" y="4980" font-size="10" style="fill:blue">coordenadas</text><path d="M1320 4990 C1340 4990 1320 4990 1340 4990" style="fill:transparent;stroke:black" /><text x="1350" y="4990" font-size="8" style="fill:black">latitud: 43.3709703</text><text x="1350" y="5000" font-size="8" style="fill:black">longitud: -8.3959425</text><text x="1350" y="5010" font-size="8" style="fill:black">altitud: 16</text><rect x="900" y="5120" width="200" height="40" style="fill:white;stroke:black;stroke-width:1" /><text x="910" y="5130" font-size="10" style="fill:blue">residencia</text><path d="M880 4940 C900 4940 880 5140 900 5140" style="fill:transparent;stroke:black" /><rect x="1120" y="5120" width="200" height="40" style="fill:white;stroke:black;stroke-width:1" /><text x="1130" y="5130" font-size="10" style="fill:blue">lugarResidencia</text><path d="M1100 5140 C1120 5140 1100 5140 1120 5140" style="fill:transparent;stroke:black" /><text x="1130" y="5140" font-size="8" style="fill:black">nombre: San Sebastián</text><rect x="1340" y="5120" width="200" height="40" style="fill:white;stroke:black;stroke-width:1" /><text x="1350" y="5130" font-size="10" style="fill:blue">coordenadas</text><path d="M1320 5140 C1340 5140 1320 5140 1340 5140" style="fill:transparent;stroke:black" /><text x="1350" y="5140" font-size="8" style="fill:black">latitud: 43.3224219</text><text x="1350" y="5150" font-size="8" style="fill:black">longitud: -1.9838889</text><text x="1350" y="5160" font-size="8" style="fill:black">altitud: 25</text><rect x="900" y="5270" width="200" height="40" style="fill:white;stroke:black;stroke-width:1" /><text x="910" y="5280" font-size="10" style="fill:blue">foto</text><path d="M880 4940 C900 4940 880 5290 900 5290" style="fill:transparent;stroke:black" /><rect x="966" y="5270" width="137" height="40" style="fill:green;stroke:black;stroke-width:1" /><text x="976" y="5280" font-size="8" style="fill:white">generico.jpg</text><rect x="460" y="5420" width="200" height="40" style="fill:white;stroke:black;stroke-width:1" /><text x="470" y="5430" font-size="10" style="fill:blue">persona</text><path d="M440 4490 C460 4490 440 5440 460 5440" style="fill:transparent;stroke:black" /><text x="470" y="5440" font-size="8" style="fill:black">nombre: Sara</text><text x="470" y="5450" font-size="8" style="fill:black">apellidos: Suárez Cabal</text><rect x="680" y="5420" width="200" height="40" style="fill:white;stroke:black;stroke-width:1" /><text x="690" y="5430" font-size="10" style="fill:blue">datos</text><path d="M660 5440 C680 5440 660 5440 680 5440" style="fill:transparent;stroke:black" /><rect x="900" y="5420" width="200" height="40" style="fill:white;stroke:black;stroke-width:1" /><text x="910" y="5430" font-size="10" style="fill:blue">nacimiento</text><path d="M880 5440 C900 5440 880 5440 900 5440" style="fill:transparent;stroke:black" /><rect x="1120" y="5420" width="200" height="40" style="fill:white;stroke:black;stroke-width:1" /><text x="1130" y="5430" font-size="10" style="fill:blue">fechaNacimiento</text><path d="M1100 5440 C1120 5440 1100 5440 1120 5440" style="fill:transparent;stroke:black" /><rect x="1186" y="5420" width="137" height="40" style="fill:green;stroke:black;stroke-width:1" /><text x="1196" y="5430" font-size="8" style="fill:white">01/04/2002</text><rect x="1120" y="5470" width="200" height="40" style="fill:white;stroke:black;stroke-width:1" /><text x="1130" y="5480" font-size="10" style="fill:blue">lugarNacimiento</text><path d="M1100 5440 C1120 5440 1100 5490 1120 5490" style="fill:transparent;stroke:black" /><text x="1130" y="5490" font-size="8" style="fill:black">nombre: Salamanca</text><rect x="1340" y="5470" width="200" height="40" style="fill:white;stroke:black;stroke-width:1" /><text x="1350" y="5480" font-size="10" style="fill:blue">coordenadas</text><path d="M1320 5490 C1340 5490 1320 5490 1340 5490" style="fill:transparent;stroke:black" /><text x="1350" y="5490" font-size="8" style="fill:black">latitud: 40.9651572</text><text x="1350" y="5500" font-size="8" style="fill:black">longitud: -5.6640182</text><text x="1350" y="5510" font-size="8" style="fill:black">altitud: 820</text><rect x="900" y="5620" width="200" height="40" style="fill:white;stroke:black;stroke-width:1" /><text x="910" y="5630" font-size="10" style="fill:blue">residencia</text><path d="M880 5440 C900 5440 880 5640 900 5640" style="fill:transparent;stroke:black" /><rect x="1120" y="5620" width="200" height="40" style="fill:white;stroke:black;stroke-width:1" /><text x="1130" y="5630" font-size="10" style="fill:blue">lugarResidencia</text><path d="M1100 5640 C1120 5640 1100 5640 1120 5640" style="fill:transparent;stroke:black" /><text x="1130" y="5640" font-size="8" style="fill:black">nombre: Burgos</text><rect x="1340" y="5620" width="200" height="40" style="fill:white;stroke:black;stroke-width:1" /><text x="1350" y="5630" font-size="10" style="fill:blue">coordenadas</text><path d="M1320 5640 C1340 5640 1320 5640 1340 5640" style="fill:transparent;stroke:black" /><text x="1350" y="5640" font-size="8" style="fill:black">latitud: 42.343926</text><text x="1350" y="5650" font-size="8" style="fill:black">longitud: -3.696977</text><text x="1350" y="5660" font-size="8" style="fill:black">altitud: 873</text><rect x="900" y="5770" width="200" height="40" style="fill:white;stroke:black;stroke-width:1" /><text x="910" y="5780" font-size="10" style="fill:blue">foto</text><path d="M880 5440 C900 5440 880 5790 900 5790" style="fill:transparent;stroke:black" /><rect x="966" y="5770" width="137" height="40" style="fill:green;stroke:black;stroke-width:1" /><text x="976" y="5780" font-size="8" style="fill:white">generico.jpg</text><rect x="460" y="5920" width="200" height="40" style="fill:white;stroke:black;stroke-width:1" /><text x="470" y="5930" font-size="10" style="fill:blue">persona</text><path d="M440 4490 C460 4490 440 5940 460 5940" style="fill:transparent;stroke:black" /><text x="470" y="5940" font-size="8" style="fill:black">nombre: Martina</text><text x="470" y="5950" font-size="8" style="fill:black">apellidos: Gómez García</text><rect x="680" y="5920" width="200" height="40" style="fill:white;stroke:black;stroke-width:1" /><text x="690" y="5930" font-size="10" style="fill:blue">datos</text><path d="M660 5940 C680 5940 660 5940 680 5940" style="fill:transparent;stroke:black" /><rect x="900" y="5920" width="200" height="40" style="fill:white;stroke:black;stroke-width:1" /><text x="910" y="5930" font-size="10" style="fill:blue">nacimiento</text><path d="M880 5940 C900 5940 880 5940 900 5940" style="fill:transparent;stroke:black" /><rect x="1120" y="5920" width="200" height="40" style="fill:white;stroke:black;stroke-width:1" /><text x="1130" y="5930" font-size="10" style="fill:blue">fechaNacimiento</text><path d="M1100 5940 C1120 5940 1100 5940 1120 5940" style="fill:transparent;stroke:black" /><rect x="1186" y="5920" width="137" height="40" style="fill:green;stroke:black;stroke-width:1" /><text x="1196" y="5930" font-size="8" style="fill:white">05/09/2002</text><rect x="1120" y="5970" width="200" height="40" style="fill:white;stroke:black;stroke-width:1" /><text x="1130" y="5980" font-size="10" style="fill:blue">lugarNacimiento</text><path d="M1100 5940 C1120 5940 1100 5990 1120 5990" style="fill:transparent;stroke:black" /><text x="1130" y="5990" font-size="8" style="fill:black">nombre: Zamora</text><rect x="1340" y="5970" width="200" height="40" style="fill:white;stroke:black;stroke-width:1" /><text x="1350" y="5980" font-size="10" style="fill:blue">coordenadas</text><path d="M1320 5990 C1340 5990 1320 5990 1340 5990" style="fill:transparent;stroke:black" /><text x="1350" y="5990" font-size="8" style="fill:black">latitud: 41.50429182277301</text><text x="1350" y="6000" font-size="8" style="fill:black">longitud: -5.744328378518475</text><text x="1350" y="6010" font-size="8" style="fill:black">altitud: 641</text><rect x="900" y="6120" width="200" height="40" style="fill:white;stroke:black;stroke-width:1" /><text x="910" y="6130" font-size="10" style="fill:blue">residencia</text><path d="M880 5940 C900 5940 880 6140 900 6140" style="fill:transparent;stroke:black" /><rect x="1120" y="6120" width="200" height="40" style="fill:white;stroke:black;stroke-width:1" /><text x="1130" y="6130" font-size="10" style="fill:blue">lugarResidencia</text><path d="M1100 6140 C1120 6140 1100 6140 1120 6140" style="fill:transparent;stroke:black" /><text x="1130" y="6140" font-size="8" style="fill:black">nombre: Vigo</text><rect x="1340" y="6120" width="200" height="40" style="fill:white;stroke:black;stroke-width:1" /><text x="1350" y="6130" font-size="10" style="fill:blue">coordenadas</text><path d="M1320 6140 C1340 6140 1320 6140 1340 6140" style="fill:transparent;stroke:black" /><text x="1350" y="6140" font-size="8" style="fill:black">latitud: 42.2376602</text><text x="1350" y="6150" font-size="8" style="fill:black">longitud: -8.7247205</text><text x="1350" y="6160" font-size="8" style="fill:black">altitud: 22</text><rect x="900" y="6270" width="200" height="40" style="fill:white;stroke:black;stroke-width:1" /><text x="910" y="6280" font-size="10" style="fill:blue">foto</text><path d="M880 5940 C900 5940 880 6290 900 6290" style="fill:transparent;stroke:black" /><rect x="966" y="6270" width="137" height="40" style="fill:green;stroke:black;stroke-width:1" /><text x="976" y="6280" font-size="8" style="fill:white">generico.jpg</text></svg>